<?xml version="1.0" encoding="UTF-8" standalone="no"?>
<!-- Created with Inkscape (http://www.inkscape.org/) -->

<svg
   xmlns:dc="http://purl.org/dc/elements/1.1/"
   xmlns:cc="http://creativecommons.org/ns#"
   xmlns:rdf="http://www.w3.org/1999/02/22-rdf-syntax-ns#"
   xmlns:svg="http://www.w3.org/2000/svg"
   xmlns="http://www.w3.org/2000/svg"
   xmlns:xlink="http://www.w3.org/1999/xlink"
   xmlns:sodipodi="http://sodipodi.sourceforge.net/DTD/sodipodi-0.dtd"
   xmlns:inkscape="http://www.inkscape.org/namespaces/inkscape"
   width="586.19781"
   height="535.03125"
   id="svg2"
   version="1.1"
   inkscape:version="0.91 r13725"
   sodipodi:docname="AN-normal-stim.svg">
  <defs
     id="defs4">
    <linearGradient
       inkscape:collect="always"
       id="linearGradient5656">
      <stop
         style="stop-color:#ff0000;stop-opacity:1;"
         offset="0"
         id="stop5658" />
      <stop
         style="stop-color:#ff0000;stop-opacity:0;"
         offset="1"
         id="stop5660" />
    </linearGradient>
    <linearGradient
       inkscape:collect="always"
       xlink:href="#linearGradient5656"
       id="linearGradient5666"
       x1="83.706581"
       y1="380.01785"
       x2="256.13843"
       y2="380.01785"
       gradientUnits="userSpaceOnUse" />
  </defs>
  <sodipodi:namedview
     id="base"
     pagecolor="#ffffff"
     bordercolor="#666666"
     borderopacity="1.0"
     inkscape:pageopacity="0.0"
     inkscape:pageshadow="2"
     inkscape:zoom="1.4"
     inkscape:cx="306.74907"
     inkscape:cy="250.58038"
     inkscape:document-units="px"
     inkscape:current-layer="layer1"
     showgrid="false"
     fit-margin-top="0"
     fit-margin-left="0"
     fit-margin-right="0"
     fit-margin-bottom="0"
     inkscape:window-width="1920"
     inkscape:window-height="1016"
     inkscape:window-x="1080"
     inkscape:window-y="867"
     inkscape:window-maximized="1" />
  <metadata
     id="metadata7">
    <rdf:RDF>
      <cc:Work
         rdf:about="">
        <dc:format>image/svg+xml</dc:format>
        <dc:type
           rdf:resource="http://purl.org/dc/dcmitype/StillImage" />
        <dc:title></dc:title>
      </cc:Work>
    </rdf:RDF>
  </metadata>
  <g
     inkscape:label="Layer 1"
     inkscape:groupmode="layer"
     id="layer1"
     transform="translate(-20.58345,-112.84375)">
    <g
       id="g4212">
      <path
         inkscape:connector-curvature="0"
         id="rect2985"
         d="m 335.95133,113.43427 c -5.40024,0 -9.86352,4.63792 -10.55031,10.65159 l -13.16678,0 0,-2.19447 -19.51385,0 0,2.19447 -10.49967,0 0,-2.19447 -19.51384,0 0,2.19447 -8.64281,0 0,-2.19447 -19.51385,0 0,2.19447 -4.82782,0 0,-2.19447 -21.48887,0 0,2.19447 -2.26198,0 0,3.27481 2.26198,0 0,2.17758 21.48887,0 0,-2.17758 4.82782,0 0,2.17758 19.51385,0 0,-2.17758 8.64281,0 0,2.17758 19.51384,0 0,-2.17758 10.49967,0 0,2.17758 19.51385,0 0,-2.17758 13.18366,0 c 0.69988,5.99923 5.14353,10.63471 10.53343,10.63471 5.39725,0 9.85895,-4.64205 10.5503,-10.65159 l 5.99258,0 0,2.19446 45.93181,0 0,-2.19446 10.33087,0 0,2.19446 41.71169,0 0,-2.19446 14.14585,0 0,1.95814 45.91494,0 0,-1.95814 10.33086,0 0,1.95814 41.71169,0 0,-1.95814 43.61919,0 0,-3.25793 -43.61919,0 0,-2.41391 -41.71169,0 0,2.41391 -10.33086,0 0,-2.41391 -45.91494,0 0,2.41391 -14.14585,0 0,-2.19447 -41.71169,0 0,2.19447 -10.33087,0 0,-2.19447 -45.93181,0 0,2.19447 -5.99258,0 c -0.69135,-6.00954 -5.15305,-10.65159 -10.5503,-10.65159 z"
         style="fill:#ffff00;fill-opacity:0.07762559;stroke:#f28136;stroke-width:1.15243256;stroke-miterlimit:4;stroke-opacity:0.95433792;stroke-dasharray:none" />
      <path
         inkscape:connector-curvature="0"
         id="rect2985-3"
         d="m 335.95132,136.58383 c -5.40024,0 -9.86351,4.63792 -10.55031,10.65159 l -13.16678,0 0,-2.19447 -19.51385,0 0,2.19447 -10.49967,0 0,-2.19447 -19.51384,0 0,2.19447 -8.64281,0 0,-2.19447 -19.51385,0 0,2.19447 -4.82782,0 0,-2.19447 -21.48886,0 0,2.19447 -2.26199,0 0,3.27481 2.26199,0 0,2.17758 21.48886,0 0,-2.17758 4.82782,0 0,2.17758 19.51385,0 0,-2.17758 8.64281,0 0,2.17758 19.51384,0 0,-2.17758 10.49967,0 0,2.17758 19.51385,0 0,-2.17758 13.18366,0 c 0.69988,5.99923 5.14353,10.63471 10.53343,10.63471 5.39726,0 9.85896,-4.64205 10.55031,-10.65159 l 5.99258,0 0,2.19446 45.93181,0 0,-2.19446 10.33087,0 0,2.19446 41.71169,0 0,-2.19446 14.14585,0 0,1.95814 45.91494,0 0,-1.95814 10.33086,0 0,1.95814 41.71169,0 0,-1.95814 43.61919,0 0,-3.25793 -43.61919,0 0,-2.41391 -41.71169,0 0,2.41391 -10.33086,0 0,-2.41391 -45.91494,0 0,2.41391 -14.14585,0 0,-2.19447 -41.71169,0 0,2.19447 -10.33087,0 0,-2.19447 -45.93181,0 0,2.19447 -5.99258,0 c -0.69135,-6.00954 -5.15305,-10.65159 -10.55031,-10.65159 z"
         style="fill:#ffff00;fill-opacity:0.07762559;stroke:#f28136;stroke-width:1.15243256;stroke-miterlimit:4;stroke-opacity:0.95433792;stroke-dasharray:none" />
      <path
         inkscape:connector-curvature="0"
         id="rect2985-22"
         d="m 335.95132,159.73325 c -5.40024,0 -9.86351,4.63792 -10.55031,10.65159 l -13.16678,0 0,-2.19447 -19.51385,0 0,2.19447 -10.49967,0 0,-2.19447 -19.51384,0 0,2.19447 -8.64281,0 0,-2.19447 -19.51385,0 0,2.19447 -4.82782,0 0,-2.19447 -21.48886,0 0,2.19447 -2.26199,0 0,3.27481 2.26199,0 0,2.17758 21.48886,0 0,-2.17758 4.82782,0 0,2.17758 19.51385,0 0,-2.17758 8.64281,0 0,2.17758 19.51384,0 0,-2.17758 10.49967,0 0,2.17758 19.51385,0 0,-2.17758 13.18366,0 c 0.69988,5.99923 5.14353,10.63471 10.53343,10.63471 5.39726,0 9.85896,-4.64205 10.55031,-10.65159 l 5.99258,0 0,2.19446 45.93181,0 0,-2.19446 10.33087,0 0,2.19446 41.71169,0 0,-2.19446 14.14585,0 0,1.95814 45.91494,0 0,-1.95814 10.33086,0 0,1.95814 41.71169,0 0,-1.95814 43.61919,0 0,-3.25793 -43.61919,0 0,-2.41391 -41.71169,0 0,2.41391 -10.33086,0 0,-2.41391 -45.91494,0 0,2.41391 -14.14585,0 0,-2.19447 -41.71169,0 0,2.19447 -10.33087,0 0,-2.19447 -45.93181,0 0,2.19447 -5.99258,0 c -0.69135,-6.00954 -5.15305,-10.65159 -10.55031,-10.65159 z"
         style="fill:#ffff00;fill-opacity:0.07762559;stroke:#f28136;stroke-width:1.15243256;stroke-miterlimit:4;stroke-opacity:0.95433792;stroke-dasharray:none" />
      <path
         inkscape:connector-curvature="0"
         id="rect2985-5"
         d="m 335.95132,182.88278 c -5.40024,0 -9.86351,4.63792 -10.55031,10.65159 l -13.16678,0 0,-2.19447 -19.51385,0 0,2.19447 -10.49967,0 0,-2.19447 -19.51384,0 0,2.19447 -8.64281,0 0,-2.19447 -19.51385,0 0,2.19447 -4.82782,0 0,-2.19447 -21.48886,0 0,2.19447 -2.26199,0 0,3.27481 2.26199,0 0,2.17758 21.48886,0 0,-2.17758 4.82782,0 0,2.17758 19.51385,0 0,-2.17758 8.64281,0 0,2.17758 19.51384,0 0,-2.17758 10.49967,0 0,2.17758 19.51385,0 0,-2.17758 13.18366,0 c 0.69988,5.99923 5.14353,10.63471 10.53343,10.63471 5.39726,0 9.85896,-4.64205 10.55031,-10.65159 l 5.99258,0 0,2.19446 45.93181,0 0,-2.19446 10.33087,0 0,2.19446 41.71169,0 0,-2.19446 14.14585,0 0,1.95814 45.91494,0 0,-1.95814 10.33086,0 0,1.95814 41.71169,0 0,-1.95814 43.61919,0 0,-3.25793 -43.61919,0 0,-2.41391 -41.71169,0 0,2.41391 -10.33086,0 0,-2.41391 -45.91494,0 0,2.41391 -14.14585,0 0,-2.19447 -41.71169,0 0,2.19447 -10.33087,0 0,-2.19447 -45.93181,0 0,2.19447 -5.99258,0 c -0.69135,-6.00954 -5.15305,-10.65159 -10.55031,-10.65159 z"
         style="fill:#ffff00;fill-opacity:0.07762559;stroke:#f28136;stroke-width:1.15243256;stroke-miterlimit:4;stroke-opacity:0.95433792;stroke-dasharray:none" />
      <path
         inkscape:connector-curvature="0"
         id="rect2985-26"
         d="m 335.95132,206.03232 c -5.40024,0 -9.86351,4.63792 -10.55031,10.65159 l -13.16678,0 0,-2.19447 -19.51385,0 0,2.19447 -10.49967,0 0,-2.19447 -19.51384,0 0,2.19447 -8.64281,0 0,-2.19447 -19.51385,0 0,2.19447 -4.82782,0 0,-2.19447 -21.48886,0 0,2.19447 -2.26199,0 0,3.27481 2.26199,0 0,2.17758 21.48886,0 0,-2.17758 4.82782,0 0,2.17758 19.51385,0 0,-2.17758 8.64281,0 0,2.17758 19.51384,0 0,-2.17758 10.49967,0 0,2.17758 19.51385,0 0,-2.17758 13.18366,0 c 0.69988,5.99923 5.14353,10.63471 10.53343,10.63471 5.39726,0 9.85896,-4.64205 10.55031,-10.65159 l 5.99258,0 0,2.19446 45.93181,0 0,-2.19446 10.33087,0 0,2.19446 41.71169,0 0,-2.19446 14.14585,0 0,1.95814 45.91494,0 0,-1.95814 10.33086,0 0,1.95814 41.71169,0 0,-1.95814 43.61919,0 0,-3.25793 -43.61919,0 0,-2.41391 -41.71169,0 0,2.41391 -10.33086,0 0,-2.41391 -45.91494,0 0,2.41391 -14.14585,0 0,-2.19447 -41.71169,0 0,2.19447 -10.33087,0 0,-2.19447 -45.93181,0 0,2.19447 -5.99258,0 c -0.69135,-6.00954 -5.15305,-10.65159 -10.55031,-10.65159 z"
         style="fill:#ffff00;fill-opacity:0.07762559;stroke:#f28136;stroke-width:1.15243256;stroke-miterlimit:4;stroke-opacity:0.95433792;stroke-dasharray:none" />
      <path
         inkscape:connector-curvature="0"
         id="rect2985-8"
         d="m 335.95132,229.18179 c -5.40024,0 -9.86351,4.63792 -10.55031,10.65159 l -13.16678,0 0,-2.19447 -19.51385,0 0,2.19447 -10.49967,0 0,-2.19447 -19.51384,0 0,2.19447 -8.64281,0 0,-2.19447 -19.51385,0 0,2.19447 -4.82782,0 0,-2.19447 -21.48886,0 0,2.19447 -2.26199,0 0,3.27481 2.26199,0 0,2.17758 21.48886,0 0,-2.17758 4.82782,0 0,2.17758 19.51385,0 0,-2.17758 8.64281,0 0,2.17758 19.51384,0 0,-2.17758 10.49967,0 0,2.17758 19.51385,0 0,-2.17758 13.18366,0 c 0.69988,5.99923 5.14353,10.63471 10.53343,10.63471 5.39726,0 9.85896,-4.64205 10.55031,-10.65159 l 5.99258,0 0,2.19446 45.93181,0 0,-2.19446 10.33087,0 0,2.19446 41.71169,0 0,-2.19446 14.14585,0 0,1.95814 45.91494,0 0,-1.95814 10.33086,0 0,1.95814 41.71169,0 0,-1.95814 43.61919,0 0,-3.25793 -43.61919,0 0,-2.41391 -41.71169,0 0,2.41391 -10.33086,0 0,-2.41391 -45.91494,0 0,2.41391 -14.14585,0 0,-2.19447 -41.71169,0 0,2.19447 -10.33087,0 0,-2.19447 -45.93181,0 0,2.19447 -5.99258,0 c -0.69135,-6.00954 -5.15305,-10.65159 -10.55031,-10.65159 z"
         style="fill:#ffff00;fill-opacity:0.07762559;stroke:#f28136;stroke-width:1.15243256;stroke-miterlimit:4;stroke-opacity:0.95433792;stroke-dasharray:none" />
      <path
         inkscape:connector-curvature="0"
         id="rect2985-13"
         d="m 335.95132,252.33126 c -5.40024,0 -9.86351,4.63792 -10.55031,10.65159 l -13.16678,0 0,-2.19447 -19.51385,0 0,2.19447 -10.49967,0 0,-2.19447 -19.51384,0 0,2.19447 -8.64281,0 0,-2.19447 -19.51385,0 0,2.19447 -4.82782,0 0,-2.19447 -21.48886,0 0,2.19447 -2.26199,0 0,3.27481 2.26199,0 0,2.17758 21.48886,0 0,-2.17758 4.82782,0 0,2.17758 19.51385,0 0,-2.17758 8.64281,0 0,2.17758 19.51384,0 0,-2.17758 10.49967,0 0,2.17758 19.51385,0 0,-2.17758 13.18366,0 c 0.69988,5.99923 5.14353,10.63471 10.53343,10.63471 5.39726,0 9.85896,-4.64205 10.55031,-10.65159 l 5.99258,0 0,2.19446 45.93181,0 0,-2.19446 10.33087,0 0,2.19446 41.71169,0 0,-2.19446 14.14585,0 0,1.95814 45.91494,0 0,-1.95814 10.33086,0 0,1.95814 41.71169,0 0,-1.95814 43.61919,0 0,-3.25793 -43.61919,0 0,-2.41391 -41.71169,0 0,2.41391 -10.33086,0 0,-2.41391 -45.91494,0 0,2.41391 -14.14585,0 0,-2.19447 -41.71169,0 0,2.19447 -10.33087,0 0,-2.19447 -45.93181,0 0,2.19447 -5.99258,0 c -0.69135,-6.00954 -5.15305,-10.65159 -10.55031,-10.65159 z"
         style="fill:#ffff00;fill-opacity:0.07762559;stroke:#f28136;stroke-width:1.15243256;stroke-miterlimit:4;stroke-opacity:0.95433792;stroke-dasharray:none" />
      <path
         inkscape:connector-curvature="0"
         id="rect2985-4"
         d="m 335.95132,275.4808 c -5.40024,0 -9.86351,4.63792 -10.55031,10.65159 l -13.16678,0 0,-2.19447 -19.51385,0 0,2.19447 -10.49967,0 0,-2.19447 -19.51384,0 0,2.19447 -8.64281,0 0,-2.19447 -19.51385,0 0,2.19447 -4.82782,0 0,-2.19447 -21.48886,0 0,2.19447 -2.26199,0 0,3.27481 2.26199,0 0,2.17758 21.48886,0 0,-2.17758 4.82782,0 0,2.17758 19.51385,0 0,-2.17758 8.64281,0 0,2.17758 19.51384,0 0,-2.17758 10.49967,0 0,2.17758 19.51385,0 0,-2.17758 13.18366,0 c 0.69988,5.99923 5.14353,10.63471 10.53343,10.63471 5.39726,0 9.85896,-4.64205 10.55031,-10.65159 l 5.99258,0 0,2.19446 45.93181,0 0,-2.19446 10.33087,0 0,2.19446 41.71169,0 0,-2.19446 14.14585,0 0,1.95814 45.91494,0 0,-1.95814 10.33086,0 0,1.95814 41.71169,0 0,-1.95814 43.61919,0 0,-3.25793 -43.61919,0 0,-2.41391 -41.71169,0 0,2.41391 -10.33086,0 0,-2.41391 -45.91494,0 0,2.41391 -14.14585,0 0,-2.19447 -41.71169,0 0,2.19447 -10.33087,0 0,-2.19447 -45.93181,0 0,2.19447 -5.99258,0 c -0.69135,-6.00954 -5.15305,-10.65159 -10.55031,-10.65159 z"
         style="fill:#ffff00;fill-opacity:0.07762559;stroke:#f28136;stroke-width:1.15243256;stroke-miterlimit:4;stroke-opacity:0.95433792;stroke-dasharray:none" />
      <path
         inkscape:connector-curvature="0"
         id="rect2985-23"
         d="m 335.95132,298.63033 c -5.40024,0 -9.86351,4.63792 -10.55031,10.65159 l -13.16678,0 0,-2.19447 -19.51385,0 0,2.19447 -10.49967,0 0,-2.19447 -19.51384,0 0,2.19447 -8.64281,0 0,-2.19447 -19.51385,0 0,2.19447 -4.82782,0 0,-2.19447 -21.48886,0 0,2.19447 -2.26199,0 0,3.27481 2.26199,0 0,2.17758 21.48886,0 0,-2.17758 4.82782,0 0,2.17758 19.51385,0 0,-2.17758 8.64281,0 0,2.17758 19.51384,0 0,-2.17758 10.49967,0 0,2.17758 19.51385,0 0,-2.17758 13.18366,0 c 0.69988,5.99923 5.14353,10.63471 10.53343,10.63471 5.39726,0 9.85896,-4.64205 10.55031,-10.65159 l 5.99258,0 0,2.19446 45.93181,0 0,-2.19446 10.33087,0 0,2.19446 41.71169,0 0,-2.19446 14.14585,0 0,1.95814 45.91494,0 0,-1.95814 10.33086,0 0,1.95814 41.71169,0 0,-1.95814 43.61919,0 0,-3.25793 -43.61919,0 0,-2.41391 -41.71169,0 0,2.41391 -10.33086,0 0,-2.41391 -45.91494,0 0,2.41391 -14.14585,0 0,-2.19447 -41.71169,0 0,2.19447 -10.33087,0 0,-2.19447 -45.93181,0 0,2.19447 -5.99258,0 c -0.69135,-6.00954 -5.15305,-10.65159 -10.55031,-10.65159 z"
         style="fill:#ffff00;fill-opacity:0.07762559;stroke:#f28136;stroke-width:1.15243256;stroke-miterlimit:4;stroke-opacity:0.95433792;stroke-dasharray:none" />
      <path
         inkscape:connector-curvature="0"
         id="rect2985-7"
         d="m 335.95132,321.77982 c -5.40024,0 -9.86351,4.63792 -10.55031,10.65159 l -13.16678,0 0,-2.19447 -19.51385,0 0,2.19447 -10.49967,0 0,-2.19447 -19.51384,0 0,2.19447 -8.64281,0 0,-2.19447 -19.51385,0 0,2.19447 -4.82782,0 0,-2.19447 -21.48886,0 0,2.19447 -2.26199,0 0,3.27481 2.26199,0 0,2.17758 21.48886,0 0,-2.17758 4.82782,0 0,2.17758 19.51385,0 0,-2.17758 8.64281,0 0,2.17758 19.51384,0 0,-2.17758 10.49967,0 0,2.17758 19.51385,0 0,-2.17758 13.18366,0 c 0.69988,5.99923 5.14353,10.63471 10.53343,10.63471 5.39726,0 9.85896,-4.64205 10.55031,-10.65159 l 5.99258,0 0,2.19446 45.93181,0 0,-2.19446 10.33087,0 0,2.19446 41.71169,0 0,-2.19446 14.14585,0 0,1.95814 45.91494,0 0,-1.95814 10.33086,0 0,1.95814 41.71169,0 0,-1.95814 43.61919,0 0,-3.25793 -43.61919,0 0,-2.41391 -41.71169,0 0,2.41391 -10.33086,0 0,-2.41391 -45.91494,0 0,2.41391 -14.14585,0 0,-2.19447 -41.71169,0 0,2.19447 -10.33087,0 0,-2.19447 -45.93181,0 0,2.19447 -5.99258,0 c -0.69135,-6.00954 -5.15305,-10.65159 -10.55031,-10.65159 z"
         style="fill:#ffff00;fill-opacity:0.07762559;stroke:#f28136;stroke-width:1.15243256;stroke-miterlimit:4;stroke-opacity:0.95433792;stroke-dasharray:none" />
      <path
         inkscape:connector-curvature="0"
         id="rect2985-27"
         d="m 335.95133,344.9293 c -5.40024,0 -9.86352,4.63792 -10.55031,10.65159 l -13.16678,0 0,-2.19447 -19.51386,0 0,2.19447 -10.49967,0 0,-2.19447 -19.51384,0 0,2.19447 -8.64281,0 0,-2.19447 -19.51385,0 0,2.19447 -4.82782,0 0,-2.19447 -21.48887,0 0,2.19447 -2.26198,0 0,3.27481 2.26198,0 0,2.17758 21.48887,0 0,-2.17758 4.82782,0 0,2.17758 19.51385,0 0,-2.17758 8.64281,0 0,2.17758 19.51384,0 0,-2.17758 10.49967,0 0,2.17758 19.51386,0 0,-2.17758 13.18366,0 c 0.69988,5.99923 5.14353,10.63471 10.53343,10.63471 5.39725,0 9.85895,-4.64205 10.5503,-10.65159 l 5.99258,0 0,2.19446 45.93181,0 0,-2.19446 10.33087,0 0,2.19446 41.71169,0 0,-2.19446 14.14585,0 0,1.95814 45.91494,0 0,-1.95814 10.33086,0 0,1.95814 41.71169,0 0,-1.95814 43.61919,0 0,-3.25793 -43.61919,0 0,-2.41391 -41.71169,0 0,2.41391 -10.33086,0 0,-2.41391 -45.91494,0 0,2.41391 -14.14585,0 0,-2.19447 -41.71169,0 0,2.19447 -10.33087,0 0,-2.19447 -45.93181,0 0,2.19447 -5.99258,0 c -0.69135,-6.00954 -5.15305,-10.65159 -10.5503,-10.65159 z"
         style="fill:#ffff00;fill-opacity:0.07762559;stroke:#f28136;stroke-width:1.15243256;stroke-miterlimit:4;stroke-opacity:0.95433792;stroke-dasharray:none" />
      <path
         inkscape:connector-curvature="0"
         id="rect2985-3-4"
         d="m 335.95132,368.0788 c -5.40024,0 -9.86351,4.63792 -10.55031,10.65159 l -13.16678,0 0,-2.19447 -19.51386,0 0,2.19447 -10.49967,0 0,-2.19447 -19.51384,0 0,2.19447 -8.64281,0 0,-2.19447 -19.51385,0 0,2.19447 -4.82782,0 0,-2.19447 -21.48886,0 0,2.19447 -2.26199,0 0,3.27481 2.26199,0 0,2.17758 21.48886,0 0,-2.17758 4.82782,0 0,2.17758 19.51385,0 0,-2.17758 8.64281,0 0,2.17758 19.51384,0 0,-2.17758 10.49967,0 0,2.17758 19.51386,0 0,-2.17758 13.18366,0 c 0.69988,5.99923 5.14353,10.63471 10.53343,10.63471 5.39726,0 9.85896,-4.64205 10.55031,-10.65159 l 5.99258,0 0,2.19446 45.93181,0 0,-2.19446 10.33087,0 0,2.19446 41.71169,0 0,-2.19446 14.14585,0 0,1.95814 45.91494,0 0,-1.95814 10.33086,0 0,1.95814 41.71169,0 0,-1.95814 43.61919,0 0,-3.25793 -43.61919,0 0,-2.41391 -41.71169,0 0,2.41391 -10.33086,0 0,-2.41391 -45.91494,0 0,2.41391 -14.14585,0 0,-2.19447 -41.71169,0 0,2.19447 -10.33087,0 0,-2.19447 -45.93181,0 0,2.19447 -5.99258,0 c -0.69135,-6.00954 -5.15305,-10.65159 -10.55031,-10.65159 z"
         style="fill:#ffff00;fill-opacity:0.07762559;stroke:#f28136;stroke-width:1.15243256;stroke-miterlimit:4;stroke-opacity:0.95433792;stroke-dasharray:none" />
      <path
         inkscape:connector-curvature="0"
         id="rect2985-22-4"
         d="m 335.95132,391.22828 c -5.40024,0 -9.86351,4.63792 -10.55031,10.65159 l -13.16678,0 0,-2.19447 -19.51386,0 0,2.19447 -10.49967,0 0,-2.19447 -19.51384,0 0,2.19447 -8.64281,0 0,-2.19447 -19.51385,0 0,2.19447 -4.82782,0 0,-2.19447 -21.48886,0 0,2.19447 -2.26199,0 0,3.27481 2.26199,0 0,2.17758 21.48886,0 0,-2.17758 4.82782,0 0,2.17758 19.51385,0 0,-2.17758 8.64281,0 0,2.17758 19.51384,0 0,-2.17758 10.49967,0 0,2.17758 19.51386,0 0,-2.17758 13.18366,0 c 0.69988,5.99923 5.14353,10.63471 10.53343,10.63471 5.39726,0 9.85896,-4.64205 10.55031,-10.65159 l 5.99258,0 0,2.19446 45.93181,0 0,-2.19446 10.33087,0 0,2.19446 41.71169,0 0,-2.19446 14.14585,0 0,1.95814 45.91494,0 0,-1.95814 10.33086,0 0,1.95814 41.71169,0 0,-1.95814 43.61919,0 0,-3.25793 -43.61919,0 0,-2.41391 -41.71169,0 0,2.41391 -10.33086,0 0,-2.41391 -45.91494,0 0,2.41391 -14.14585,0 0,-2.19447 -41.71169,0 0,2.19447 -10.33087,0 0,-2.19447 -45.93181,0 0,2.19447 -5.99258,0 c -0.69135,-6.00954 -5.15305,-10.65159 -10.55031,-10.65159 z"
         style="fill:#ffff00;fill-opacity:0.07762559;stroke:#f28136;stroke-width:1.15243256;stroke-miterlimit:4;stroke-opacity:0.95433792;stroke-dasharray:none" />
      <path
         inkscape:connector-curvature="0"
         id="rect2985-5-1"
         d="m 335.95132,414.37775 c -5.40024,0 -9.86351,4.63792 -10.55031,10.65159 l -13.16678,0 0,-2.19447 -19.51386,0 0,2.19447 -10.49967,0 0,-2.19447 -19.51384,0 0,2.19447 -8.64281,0 0,-2.19447 -19.51385,0 0,2.19447 -4.82782,0 0,-2.19447 -21.48886,0 0,2.19447 -2.26199,0 0,3.27481 2.26199,0 0,2.17758 21.48886,0 0,-2.17758 4.82782,0 0,2.17758 19.51385,0 0,-2.17758 8.64281,0 0,2.17758 19.51384,0 0,-2.17758 10.49967,0 0,2.17758 19.51386,0 0,-2.17758 13.18366,0 c 0.69988,5.99923 5.14353,10.63471 10.53343,10.63471 5.39726,0 9.85896,-4.64205 10.55031,-10.65159 l 5.99258,0 0,2.19446 45.93181,0 0,-2.19446 10.33087,0 0,2.19446 41.71169,0 0,-2.19446 14.14585,0 0,1.95814 45.91494,0 0,-1.95814 10.33086,0 0,1.95814 41.71169,0 0,-1.95814 43.61919,0 0,-3.25793 -43.61919,0 0,-2.41391 -41.71169,0 0,2.41391 -10.33086,0 0,-2.41391 -45.91494,0 0,2.41391 -14.14585,0 0,-2.19447 -41.71169,0 0,2.19447 -10.33087,0 0,-2.19447 -45.93181,0 0,2.19447 -5.99258,0 c -0.69135,-6.00954 -5.15305,-10.65159 -10.55031,-10.65159 z"
         style="fill:#ffff00;fill-opacity:0.07762559;stroke:#f28136;stroke-width:1.15243256;stroke-miterlimit:4;stroke-opacity:0.95433792;stroke-dasharray:none" />
      <path
         inkscape:connector-curvature="0"
         id="rect2985-26-0"
         d="m 335.95132,437.52729 c -5.40024,0 -9.86351,4.63792 -10.55031,10.65159 l -13.16678,0 0,-2.19447 -19.51386,0 0,2.19447 -10.49967,0 0,-2.19447 -19.51384,0 0,2.19447 -8.64281,0 0,-2.19447 -19.51385,0 0,2.19447 -4.82782,0 0,-2.19447 -21.48886,0 0,2.19447 -2.26199,0 0,3.27481 2.26199,0 0,2.17758 21.48886,0 0,-2.17758 4.82782,0 0,2.17758 19.51385,0 0,-2.17758 8.64281,0 0,2.17758 19.51384,0 0,-2.17758 10.49967,0 0,2.17758 19.51386,0 0,-2.17758 13.18366,0 c 0.69988,5.99923 5.14353,10.63471 10.53343,10.63471 5.39726,0 9.85896,-4.64205 10.55031,-10.65159 l 5.99258,0 0,2.19446 45.93181,0 0,-2.19446 10.33087,0 0,2.19446 41.71169,0 0,-2.19446 14.14585,0 0,1.95814 45.91494,0 0,-1.95814 10.33086,0 0,1.95814 41.71169,0 0,-1.95814 43.61919,0 0,-3.25793 -43.61919,0 0,-2.41391 -41.71169,0 0,2.41391 -10.33086,0 0,-2.41391 -45.91494,0 0,2.41391 -14.14585,0 0,-2.19447 -41.71169,0 0,2.19447 -10.33087,0 0,-2.19447 -45.93181,0 0,2.19447 -5.99258,0 c -0.69135,-6.00954 -5.15305,-10.65159 -10.55031,-10.65159 z"
         style="fill:#ffff00;fill-opacity:0.07762559;stroke:#f28136;stroke-width:1.15243256;stroke-miterlimit:4;stroke-opacity:0.95433792;stroke-dasharray:none" />
      <path
         inkscape:connector-curvature="0"
         id="rect2985-8-5"
         d="m 335.95132,460.67683 c -5.40024,0 -9.86351,4.63792 -10.55031,10.65159 l -13.16678,0 0,-2.19447 -19.51386,0 0,2.19447 -10.49967,0 0,-2.19447 -19.51384,0 0,2.19447 -8.64281,0 0,-2.19447 -19.51385,0 0,2.19447 -4.82782,0 0,-2.19447 -21.48886,0 0,2.19447 -2.26199,0 0,3.27481 2.26199,0 0,2.17758 21.48886,0 0,-2.17758 4.82782,0 0,2.17758 19.51385,0 0,-2.17758 8.64281,0 0,2.17758 19.51384,0 0,-2.17758 10.49967,0 0,2.17758 19.51386,0 0,-2.17758 13.18366,0 c 0.69988,5.99923 5.14353,10.63471 10.53343,10.63471 5.39726,0 9.85896,-4.64205 10.55031,-10.65159 l 5.99258,0 0,2.19446 45.93181,0 0,-2.19446 10.33087,0 0,2.19446 41.71169,0 0,-2.19446 14.14585,0 0,1.95814 45.91494,0 0,-1.95814 10.33086,0 0,1.95814 41.71169,0 0,-1.95814 43.61919,0 0,-3.25793 -43.61919,0 0,-2.41391 -41.71169,0 0,2.41391 -10.33086,0 0,-2.41391 -45.91494,0 0,2.41391 -14.14585,0 0,-2.19447 -41.71169,0 0,2.19447 -10.33087,0 0,-2.19447 -45.93181,0 0,2.19447 -5.99258,0 c -0.69135,-6.00954 -5.15305,-10.65159 -10.55031,-10.65159 z"
         style="fill:#ffff00;fill-opacity:0.07762559;stroke:#f28136;stroke-width:1.15243256;stroke-miterlimit:4;stroke-opacity:0.95433792;stroke-dasharray:none" />
      <path
         inkscape:connector-curvature="0"
         id="rect2985-13-1"
         d="m 335.95132,483.8263 c -5.40024,0 -9.86351,4.63792 -10.55031,10.65159 l -13.16678,0 0,-2.19447 -19.51386,0 0,2.19447 -10.49967,0 0,-2.19447 -19.51384,0 0,2.19447 -8.64281,0 0,-2.19447 -19.51385,0 0,2.19447 -4.82782,0 0,-2.19447 -21.48886,0 0,2.19447 -2.26199,0 0,3.27481 2.26199,0 0,2.17758 21.48886,0 0,-2.17758 4.82782,0 0,2.17758 19.51385,0 0,-2.17758 8.64281,0 0,2.17758 19.51384,0 0,-2.17758 10.49967,0 0,2.17758 19.51386,0 0,-2.17758 13.18366,0 c 0.69988,5.99923 5.14353,10.63471 10.53343,10.63471 5.39726,0 9.85896,-4.64205 10.55031,-10.65159 l 5.99258,0 0,2.19446 45.93181,0 0,-2.19446 10.33087,0 0,2.19446 41.71169,0 0,-2.19446 14.14585,0 0,1.95814 45.91494,0 0,-1.95814 10.33086,0 0,1.95814 41.71169,0 0,-1.95814 43.61919,0 0,-3.25793 -43.61919,0 0,-2.41391 -41.71169,0 0,2.41391 -10.33086,0 0,-2.41391 -45.91494,0 0,2.41391 -14.14585,0 0,-2.19447 -41.71169,0 0,2.19447 -10.33087,0 0,-2.19447 -45.93181,0 0,2.19447 -5.99258,0 c -0.69135,-6.00954 -5.15305,-10.65159 -10.55031,-10.65159 z"
         style="fill:#ffff00;fill-opacity:0.07762559;stroke:#f28136;stroke-width:1.15243256;stroke-miterlimit:4;stroke-opacity:0.95433792;stroke-dasharray:none" />
      <path
         inkscape:connector-curvature="0"
         id="rect2985-4-9"
         d="m 335.95132,506.97577 c -5.40024,0 -9.86351,4.63792 -10.55031,10.65159 l -13.16678,0 0,-2.19447 -19.51386,0 0,2.19447 -10.49967,0 0,-2.19447 -19.51384,0 0,2.19447 -8.64281,0 0,-2.19447 -19.51385,0 0,2.19447 -4.82782,0 0,-2.19447 -21.48886,0 0,2.19447 -2.26199,0 0,3.27481 2.26199,0 0,2.17758 21.48886,0 0,-2.17758 4.82782,0 0,2.17758 19.51385,0 0,-2.17758 8.64281,0 0,2.17758 19.51384,0 0,-2.17758 10.49967,0 0,2.17758 19.51386,0 0,-2.17758 13.18366,0 c 0.69988,5.99923 5.14353,10.63471 10.53343,10.63471 5.39726,0 9.85896,-4.64205 10.55031,-10.65159 l 5.99258,0 0,2.19446 45.93181,0 0,-2.19446 10.33087,0 0,2.19446 41.71169,0 0,-2.19446 14.14585,0 0,1.95814 45.91494,0 0,-1.95814 10.33086,0 0,1.95814 41.71169,0 0,-1.95814 43.61919,0 0,-3.25793 -43.61919,0 0,-2.41391 -41.71169,0 0,2.41391 -10.33086,0 0,-2.41391 -45.91494,0 0,2.41391 -14.14585,0 0,-2.19447 -41.71169,0 0,2.19447 -10.33087,0 0,-2.19447 -45.93181,0 0,2.19447 -5.99258,0 c -0.69135,-6.00954 -5.15305,-10.65159 -10.55031,-10.65159 z"
         style="fill:#ffff00;fill-opacity:0.07762559;stroke:#f28136;stroke-width:1.15243256;stroke-miterlimit:4;stroke-opacity:0.95433792;stroke-dasharray:none" />
      <path
         inkscape:connector-curvature="0"
         id="rect2985-23-8"
         d="m 335.95132,530.12533 c -5.40024,0 -9.86351,4.63792 -10.55031,10.65159 l -13.16678,0 0,-2.19447 -19.51386,0 0,2.19447 -10.49967,0 0,-2.19447 -19.51384,0 0,2.19447 -8.64281,0 0,-2.19447 -19.51385,0 0,2.19447 -4.82782,0 0,-2.19447 -21.48886,0 0,2.19447 -2.26199,0 0,3.27481 2.26199,0 0,2.17758 21.48886,0 0,-2.17758 4.82782,0 0,2.17758 19.51385,0 0,-2.17758 8.64281,0 0,2.17758 19.51384,0 0,-2.17758 10.49967,0 0,2.17758 19.51386,0 0,-2.17758 13.18366,0 c 0.69988,5.99923 5.14353,10.63471 10.53343,10.63471 5.39726,0 9.85896,-4.64205 10.55031,-10.65159 l 5.99258,0 0,2.19446 45.93181,0 0,-2.19446 10.33087,0 0,2.19446 41.71169,0 0,-2.19446 14.14585,0 0,1.95814 45.91494,0 0,-1.95814 10.33086,0 0,1.95814 41.71169,0 0,-1.95814 43.61919,0 0,-3.25793 -43.61919,0 0,-2.41391 -41.71169,0 0,2.41391 -10.33086,0 0,-2.41391 -45.91494,0 0,2.41391 -14.14585,0 0,-2.19447 -41.71169,0 0,2.19447 -10.33087,0 0,-2.19447 -45.93181,0 0,2.19447 -5.99258,0 c -0.69135,-6.00954 -5.15305,-10.65159 -10.55031,-10.65159 z"
         style="fill:#ffff00;fill-opacity:0.07762559;stroke:#f28136;stroke-width:1.15243256;stroke-miterlimit:4;stroke-opacity:0.95433792;stroke-dasharray:none" />
      <path
         inkscape:connector-curvature="0"
         id="rect2985-7-6"
         d="m 335.95132,553.27479 c -5.40024,0 -9.86351,4.63792 -10.55031,10.65159 l -13.16678,0 0,-2.19447 -19.51386,0 0,2.19447 -10.49967,0 0,-2.19447 -19.51384,0 0,2.19447 -8.64281,0 0,-2.19447 -19.51385,0 0,2.19447 -4.82782,0 0,-2.19447 -21.48886,0 0,2.19447 -2.26199,0 0,3.27481 2.26199,0 0,2.17758 21.48886,0 0,-2.17758 4.82782,0 0,2.17758 19.51385,0 0,-2.17758 8.64281,0 0,2.17758 19.51384,0 0,-2.17758 10.49967,0 0,2.17758 19.51386,0 0,-2.17758 13.18366,0 c 0.69988,5.99923 5.14353,10.63471 10.53343,10.63471 5.39726,0 9.85896,-4.64205 10.55031,-10.65159 l 5.99258,0 0,2.19446 45.93181,0 0,-2.19446 10.33087,0 0,2.19446 41.71169,0 0,-2.19446 14.14585,0 0,1.95814 45.91494,0 0,-1.95814 10.33086,0 0,1.95814 41.71169,0 0,-1.95814 43.61919,0 0,-3.25793 -43.61919,0 0,-2.41391 -41.71169,0 0,2.41391 -10.33086,0 0,-2.41391 -45.91494,0 0,2.41391 -14.14585,0 0,-2.19447 -41.71169,0 0,2.19447 -10.33087,0 0,-2.19447 -45.93181,0 0,2.19447 -5.99258,0 c -0.69135,-6.00954 -5.15305,-10.65159 -10.55031,-10.65159 z"
         style="fill:#ffff00;fill-opacity:0.07762559;stroke:#f28136;stroke-width:1.15243256;stroke-miterlimit:4;stroke-opacity:0.95433792;stroke-dasharray:none" />
      <path
         inkscape:connector-curvature="0"
         id="rect2985-4-9-6"
         d="m 335.95132,576.42431 c -5.40024,0 -9.86351,4.63792 -10.55031,10.65159 l -13.16678,0 0,-2.19447 -19.51386,0 0,2.19447 -10.49967,0 0,-2.19447 -19.51384,0 0,2.19447 -8.64281,0 0,-2.19447 -19.51385,0 0,2.19447 -4.82782,0 0,-2.19447 -21.48886,0 0,2.19447 -2.26199,0 0,3.27481 2.26199,0 0,2.17758 21.48886,0 0,-2.17758 4.82782,0 0,2.17758 19.51385,0 0,-2.17758 8.64281,0 0,2.17758 19.51384,0 0,-2.17758 10.49967,0 0,2.17758 19.51386,0 0,-2.17758 13.18366,0 c 0.69988,5.99923 5.14353,10.63471 10.53343,10.63471 5.39726,0 9.85896,-4.64205 10.55031,-10.65159 l 5.99258,0 0,2.19446 45.93181,0 0,-2.19446 10.33087,0 0,2.19446 41.71169,0 0,-2.19446 14.14585,0 0,1.95814 45.91494,0 0,-1.95814 10.33086,0 0,1.95814 41.71169,0 0,-1.95814 43.61919,0 0,-3.25793 -43.61919,0 0,-2.41391 -41.71169,0 0,2.41391 -10.33086,0 0,-2.41391 -45.91494,0 0,2.41391 -14.14585,0 0,-2.19447 -41.71169,0 0,2.19447 -10.33087,0 0,-2.19447 -45.93181,0 0,2.19447 -5.99258,0 c -0.69135,-6.00954 -5.15305,-10.65159 -10.55031,-10.65159 z"
         style="fill:#ffff00;fill-opacity:0.07762559;stroke:#f28136;stroke-width:1.15243256;stroke-miterlimit:4;stroke-opacity:0.95433792;stroke-dasharray:none" />
      <path
         inkscape:connector-curvature="0"
         id="rect2985-23-8-5"
         d="m 335.95132,599.57381 c -5.40024,0 -9.86351,4.63792 -10.55031,10.65159 l -13.16678,0 0,-2.19447 -19.51386,0 0,2.19447 -10.49967,0 0,-2.19447 -19.51384,0 0,2.19447 -8.64281,0 0,-2.19447 -19.51385,0 0,2.19447 -4.82782,0 0,-2.19447 -21.48886,0 0,2.19447 -2.26199,0 0,3.27481 2.26199,0 0,2.17758 21.48886,0 0,-2.17758 4.82782,0 0,2.17758 19.51385,0 0,-2.17758 8.64281,0 0,2.17758 19.51384,0 0,-2.17758 10.49967,0 0,2.17758 19.51386,0 0,-2.17758 13.18366,0 c 0.69988,5.99923 5.14353,10.63471 10.53343,10.63471 5.39726,0 9.85896,-4.64205 10.55031,-10.65159 l 5.99258,0 0,2.19446 45.93181,0 0,-2.19446 10.33087,0 0,2.19446 41.71169,0 0,-2.19446 14.14585,0 0,1.95814 45.91494,0 0,-1.95814 10.33086,0 0,1.95814 41.71169,0 0,-1.95814 43.61919,0 0,-3.25793 -43.61919,0 0,-2.41391 -41.71169,0 0,2.41391 -10.33086,0 0,-2.41391 -45.91494,0 0,2.41391 -14.14585,0 0,-2.19447 -41.71169,0 0,2.19447 -10.33087,0 0,-2.19447 -45.93181,0 0,2.19447 -5.99258,0 c -0.69135,-6.00954 -5.15305,-10.65159 -10.55031,-10.65159 z"
         style="fill:#ffff00;fill-opacity:0.07762559;stroke:#f28136;stroke-width:1.15243256;stroke-miterlimit:4;stroke-opacity:0.95433792;stroke-dasharray:none" />
      <path
         inkscape:connector-curvature="0"
         id="rect2985-7-6-9"
         d="m 335.95132,622.72333 c -5.40024,0 -9.86351,4.63792 -10.55031,10.65159 l -13.16678,0 0,-2.19447 -19.51386,0 0,2.19447 -10.49967,0 0,-2.19447 -19.51384,0 0,2.19447 -8.64281,0 0,-2.19447 -19.51385,0 0,2.19447 -4.82782,0 0,-2.19447 -21.48886,0 0,2.19447 -2.26199,0 0,3.27481 2.26199,0 0,2.17758 21.48886,0 0,-2.17758 4.82782,0 0,2.17758 19.51385,0 0,-2.17758 8.64281,0 0,2.17758 19.51384,0 0,-2.17758 10.49967,0 0,2.17758 19.51386,0 0,-2.17758 13.18366,0 c 0.69988,5.99923 5.14353,10.63471 10.53343,10.63471 5.39726,0 9.85896,-4.64205 10.55031,-10.65159 l 5.99258,0 0,2.19446 45.93181,0 0,-2.19446 10.33087,0 0,2.19446 41.71169,0 0,-2.19446 14.14585,0 0,1.95814 45.91494,0 0,-1.95814 10.33086,0 0,1.95814 41.71169,0 0,-1.95814 43.61919,0 0,-3.25793 -43.61919,0 0,-2.41391 -41.71169,0 0,2.41391 -10.33086,0 0,-2.41391 -45.91494,0 0,2.41391 -14.14585,0 0,-2.19447 -41.71169,0 0,2.19447 -10.33087,0 0,-2.19447 -45.93181,0 0,2.19447 -5.99258,0 c -0.69135,-6.00954 -5.15305,-10.65159 -10.55031,-10.65159 z"
         style="fill:#ffff00;fill-opacity:0.07762559;stroke:#f28136;stroke-width:1.15243256;stroke-miterlimit:4;stroke-opacity:0.95433792;stroke-dasharray:none" />
    </g>
    <ellipse
       style="fill:#cce7f1;fill-opacity:1;stroke:#020101;stroke-width:0.58001816;stroke-miterlimit:4;stroke-dasharray:none;stroke-opacity:0.95433792"
       id="path4208"
       cx="59.659195"
       cy="366.48157"
       rx="23.262007"
       ry="31.2243" />
    <path
       style="fill:none;fill-rule:evenodd;stroke:#000000;stroke-width:0.54861104px;stroke-linecap:butt;stroke-linejoin:miter;stroke-opacity:1"
       d="m 53.214899,370.28323 0,-17.63392 6.661705,0 0,33.30852 7.053571,0 0,-17.63392"
       id="path3374"
       inkscape:connector-curvature="0" />
    <path
       style="fill:url(#linearGradient5666);fill-opacity:1;fill-rule:evenodd;stroke:none;stroke-width:1.22813344px;stroke-linecap:butt;stroke-linejoin:miter;stroke-opacity:1"
       d="M 83.706584,366.45062 C 211.11344,274.79488 198.66114,208.88033 256.13843,130.09517 l 0,499.84535 C 209.78929,540.20776 210.54136,442.42121 83.706584,366.45062 Z"
       id="path3388"
       inkscape:connector-curvature="0"
       sodipodi:nodetypes="cccc" />
    <circle
       style="fill:#ff0000;fill-opacity:1;stroke:none"
       id="path5693"
       cx="208.58345"
       cy="217.16071"
       r="4.2857141" />
    <circle
       style="fill:#ff0000;fill-opacity:1;stroke:none"
       id="path5693-3"
       cx="209.29773"
       cy="240.73215"
       r="4.2857141" />
    <circle
       style="fill:#ff0000;fill-opacity:1;stroke:none"
       id="path5693-6"
       cx="233.29773"
       cy="288.73215"
       r="4.2857141" />
    <circle
       style="fill:#ff0000;fill-opacity:1;stroke:none"
       id="path5693-7"
       cx="235.29773"
       cy="312.73215"
       r="4.2857141" />
    <circle
       style="fill:#ff0000;fill-opacity:1;stroke:none"
       id="path5693-9"
       cx="317.29773"
       cy="356.73215"
       r="4.2857141" />
    <circle
       style="fill:#ff0000;fill-opacity:1;stroke:none"
       id="path5693-2"
       cx="289.29773"
       cy="378.73215"
       r="4.2857141" />
    <circle
       style="fill:#ff0000;fill-opacity:1;stroke:none"
       id="path5693-70"
       cx="259.29773"
       cy="402.73215"
       r="4.2857141" />
    <circle
       style="fill:#ff0000;fill-opacity:1;stroke:none"
       id="path5693-93"
       cx="233.29773"
       cy="426.73215"
       r="4.2857141" />
    <circle
       style="fill:#ff0000;fill-opacity:1;stroke:none"
       id="path5693-60"
       cx="233.29773"
       cy="450.73215"
       r="4.2857141" />
    <circle
       style="fill:#ff0000;fill-opacity:1;stroke:none"
       id="path5693-626"
       cx="207.29773"
       cy="472.73215"
       r="4.2857141" />
    <circle
       style="fill:#ff0000;fill-opacity:1;stroke:none"
       id="path5693-79"
       cx="256.86917"
       cy="335.01785"
       r="4.2857141" />
  </g>
</svg>
