<?xml version="1.0" encoding="UTF-8" standalone="no"?>
<!-- Created with Inkscape (http://www.inkscape.org/) -->

<svg
   xmlns:dc="http://purl.org/dc/elements/1.1/"
   xmlns:cc="http://creativecommons.org/ns#"
   xmlns:rdf="http://www.w3.org/1999/02/22-rdf-syntax-ns#"
   xmlns:svg="http://www.w3.org/2000/svg"
   xmlns="http://www.w3.org/2000/svg"
   xmlns:xlink="http://www.w3.org/1999/xlink"
   xmlns:sodipodi="http://sodipodi.sourceforge.net/DTD/sodipodi-0.dtd"
   xmlns:inkscape="http://www.inkscape.org/namespaces/inkscape"
   width="586.19781"
   height="535.03125"
   id="svg2"
   version="1.1"
   inkscape:version="0.91 r13725"
   sodipodi:docname="AN-partial-severe-degenerated-A.svg">
  <defs
     id="defs4">
    <linearGradient
       gradientTransform="translate(-8.175531,10.8672)"
       inkscape:collect="always"
       xlink:href="#linearGradient5656"
       id="linearGradient5666"
       x1="83.706581"
       y1="380.01785"
       x2="256.13843"
       y2="380.01785"
       gradientUnits="userSpaceOnUse" />
    <linearGradient
       inkscape:collect="always"
       id="linearGradient5656">
      <stop
         style="stop-color:#ff0000;stop-opacity:1;"
         offset="0"
         id="stop5658" />
      <stop
         style="stop-color:#ff0000;stop-opacity:0;"
         offset="1"
         id="stop5660" />
    </linearGradient>
  </defs>
  <sodipodi:namedview
     id="base"
     pagecolor="#ffffff"
     bordercolor="#666666"
     borderopacity="1.0"
     inkscape:pageopacity="0.0"
     inkscape:pageshadow="2"
     inkscape:zoom="0.9899495"
     inkscape:cx="-132.38224"
     inkscape:cy="99.896115"
     inkscape:document-units="px"
     inkscape:current-layer="layer1"
     showgrid="false"
     fit-margin-top="0"
     fit-margin-left="0"
     fit-margin-right="0"
     fit-margin-bottom="0"
     inkscape:window-width="1920"
     inkscape:window-height="1053"
     inkscape:window-x="0"
     inkscape:window-y="27"
     inkscape:window-maximized="1" />
  <metadata
     id="metadata7">
    <rdf:RDF>
      <cc:Work
         rdf:about="">
        <dc:format>image/svg+xml</dc:format>
        <dc:type
           rdf:resource="http://purl.org/dc/dcmitype/StillImage" />
        <dc:title />
      </cc:Work>
    </rdf:RDF>
  </metadata>
  <g
     inkscape:label="Layer 1"
     inkscape:groupmode="layer"
     id="layer1"
     transform="translate(-20.58345,-112.84375)">
    <path
       style="fill:#ffff00;fill-opacity:0.07762559;stroke:#f28136;stroke-width:1.15243256;stroke-miterlimit:4;stroke-opacity:0.95433792;stroke-dasharray:none"
       d="m 336.14799,113.43427 c -5.40024,0 -9.86352,4.63792 -10.55031,10.65159 l -13.16678,0 0,-2.19447 -19.51385,0 0,2.19447 -10.49967,0 0,-2.19447 -19.51384,0 0,2.19447 -8.64281,0 0,-2.19447 -19.51385,0 0,2.19447 -4.82782,0 0,-2.19447 -21.48887,0 0,2.19447 -2.26198,0 0,3.27481 2.26198,0 0,2.17758 21.48887,0 0,-2.17758 4.82782,0 0,2.17758 19.51385,0 0,-2.17758 8.64281,0 0,2.17758 19.51384,0 0,-2.17758 10.49967,0 0,2.17758 19.51385,0 0,-2.17758 13.18366,0 c 0.69988,5.99923 5.14353,10.63471 10.53343,10.63471 5.39725,0 9.85895,-4.64205 10.5503,-10.65159 l 5.99258,0 0,2.19446 45.93181,0 0,-2.19446 10.33087,0 0,2.19446 41.71169,0 0,-2.19446 14.14585,0 0,1.95814 45.91494,0 0,-1.95814 10.33086,0 0,1.95814 41.71169,0 0,-1.95814 43.61919,0 0,-3.25793 -43.61919,0 0,-2.41391 -41.71169,0 0,2.41391 -10.33086,0 0,-2.41391 -45.91494,0 0,2.41391 -14.14585,0 0,-2.19447 -41.71169,0 0,2.19447 -10.33087,0 0,-2.19447 -45.93181,0 0,2.19447 -5.99258,0 c -0.69135,-6.00954 -5.15305,-10.65159 -10.5503,-10.65159 z"
       id="rect2985"
       inkscape:connector-curvature="0" />
    <path
       style="fill:#ffff00;fill-opacity:0.07762559;stroke:#f28136;stroke-width:1.15243256;stroke-miterlimit:4;stroke-opacity:0.95433792;stroke-dasharray:none"
       d="m 336.14798,136.5838 c -5.40024,0 -9.86351,4.63792 -10.55031,10.65159 l -13.16678,0 0,-2.19447 -19.51385,0 0,2.19447 -10.49967,0 0,-2.19447 -19.51384,0 0,2.19447 -8.64281,0 0,-2.19447 -19.51385,0 0,2.19447 -4.82782,0 0,-2.19447 -21.48886,0 0,2.19447 -2.26199,0 0,3.27481 2.26199,0 0,2.17758 21.48886,0 0,-2.17758 4.82782,0 0,2.17758 19.51385,0 0,-2.17758 8.64281,0 0,2.17758 19.51384,0 0,-2.17758 10.49967,0 0,2.17758 19.51385,0 0,-2.17758 13.18366,0 c 0.69988,5.99923 5.14353,10.63471 10.53343,10.63471 5.39726,0 9.85896,-4.64205 10.55031,-10.65159 l 5.99258,0 0,2.19446 45.93181,0 0,-2.19446 10.33087,0 0,2.19446 41.71169,0 0,-2.19446 14.14585,0 0,1.95814 45.91494,0 0,-1.95814 10.33086,0 0,1.95814 41.71169,0 0,-1.95814 43.61919,0 0,-3.25793 -43.61919,0 0,-2.41391 -41.71169,0 0,2.41391 -10.33086,0 0,-2.41391 -45.91494,0 0,2.41391 -14.14585,0 0,-2.19447 -41.71169,0 0,2.19447 -10.33087,0 0,-2.19447 -45.93181,0 0,2.19447 -5.99258,0 c -0.69135,-6.00954 -5.15305,-10.65159 -10.55031,-10.65159 z"
       id="rect2985-3"
       inkscape:connector-curvature="0" />
    <path
       style="fill:#ffff00;fill-opacity:0.07762559;stroke:#f28136;stroke-width:1.15243256;stroke-miterlimit:4;stroke-opacity:0.95433792;stroke-dasharray:none"
       d="m 336.14798,159.73328 c -5.40024,0 -9.86351,4.63792 -10.55031,10.65159 l -13.16678,0 0,-2.19447 -19.51385,0 0,2.19447 -10.49967,0 0,-2.19447 -19.51384,0 0,2.19447 -8.64281,0 0,-2.19447 -19.51385,0 0,2.19447 -4.82782,0 0,-2.19447 -21.48886,0 0,2.19447 -2.26199,0 0,3.27481 2.26199,0 0,2.17758 21.48886,0 0,-2.17758 4.82782,0 0,2.17758 19.51385,0 0,-2.17758 8.64281,0 0,2.17758 19.51384,0 0,-2.17758 10.49967,0 0,2.17758 19.51385,0 0,-2.17758 13.18366,0 c 0.69988,5.99923 5.14353,10.63471 10.53343,10.63471 5.39726,0 9.85896,-4.64205 10.55031,-10.65159 l 5.99258,0 0,2.19446 45.93181,0 0,-2.19446 10.33087,0 0,2.19446 41.71169,0 0,-2.19446 14.14585,0 0,1.95814 45.91494,0 0,-1.95814 10.33086,0 0,1.95814 41.71169,0 0,-1.95814 43.61919,0 0,-3.25793 -43.61919,0 0,-2.41391 -41.71169,0 0,2.41391 -10.33086,0 0,-2.41391 -45.91494,0 0,2.41391 -14.14585,0 0,-2.19447 -41.71169,0 0,2.19447 -10.33087,0 0,-2.19447 -45.93181,0 0,2.19447 -5.99258,0 c -0.69135,-6.00954 -5.15305,-10.65159 -10.55031,-10.65159 z"
       id="rect2985-22"
       inkscape:connector-curvature="0" />
    <path
       style="fill:#ffff00;fill-opacity:0.07762559;stroke:#f28136;stroke-width:1.15243256;stroke-miterlimit:4;stroke-opacity:0.95433792;stroke-dasharray:none"
       d="m 336.14798,229.18179 c -5.40024,0 -9.86351,4.63792 -10.55031,10.65159 l -13.16678,0 0,-2.19447 -19.51385,0 0,2.19447 -10.49967,0 0,-2.19447 -19.51384,0 0,2.19447 -8.64281,0 0,-2.19447 -19.51385,0 0,2.19447 -4.82782,0 0,-2.19447 -21.48886,0 0,2.19447 -2.26199,0 0,3.27481 2.26199,0 0,2.17758 21.48886,0 0,-2.17758 4.82782,0 0,2.17758 19.51385,0 0,-2.17758 8.64281,0 0,2.17758 19.51384,0 0,-2.17758 10.49967,0 0,2.17758 19.51385,0 0,-2.17758 13.18366,0 c 0.69988,5.99923 5.14353,10.63471 10.53343,10.63471 5.39726,0 9.85896,-4.64205 10.55031,-10.65159 l 5.99258,0 0,2.19446 45.93181,0 0,-2.19446 10.33087,0 0,2.19446 41.71169,0 0,-2.19446 14.14585,0 0,1.95814 45.91494,0 0,-1.95814 10.33086,0 0,1.95814 41.71169,0 0,-1.95814 43.61919,0 0,-3.25793 -43.61919,0 0,-2.41391 -41.71169,0 0,2.41391 -10.33086,0 0,-2.41391 -45.91494,0 0,2.41391 -14.14585,0 0,-2.19447 -41.71169,0 0,2.19447 -10.33087,0 0,-2.19447 -45.93181,0 0,2.19447 -5.99258,0 c -0.69135,-6.00954 -5.15305,-10.65159 -10.55031,-10.65159 z"
       id="rect2985-8"
       inkscape:connector-curvature="0" />
    <path
       style="fill:#ffff00;fill-opacity:0.07762559;stroke:#f28136;stroke-width:1.15243256;stroke-miterlimit:4;stroke-opacity:0.95433792;stroke-dasharray:none"
       d="m 336.14798,252.33129 c -5.40024,0 -9.86351,4.63792 -10.55031,10.65159 l -13.16678,0 0,-2.19447 -19.51385,0 0,2.19447 -10.49967,0 0,-2.19447 -19.51384,0 0,2.19447 -8.64281,0 0,-2.19447 -19.51385,0 0,2.19447 -4.82782,0 0,-2.19447 -21.48886,0 0,2.19447 -2.26199,0 0,3.27481 2.26199,0 0,2.17758 21.48886,0 0,-2.17758 4.82782,0 0,2.17758 19.51385,0 0,-2.17758 8.64281,0 0,2.17758 19.51384,0 0,-2.17758 10.49967,0 0,2.17758 19.51385,0 0,-2.17758 13.18366,0 c 0.69988,5.99923 5.14353,10.63471 10.53343,10.63471 5.39726,0 9.85896,-4.64205 10.55031,-10.65159 l 5.99258,0 0,2.19446 45.93181,0 0,-2.19446 10.33087,0 0,2.19446 41.71169,0 0,-2.19446 14.14585,0 0,1.95814 45.91494,0 0,-1.95814 10.33086,0 0,1.95814 41.71169,0 0,-1.95814 43.61919,0 0,-3.25793 -43.61919,0 0,-2.41391 -41.71169,0 0,2.41391 -10.33086,0 0,-2.41391 -45.91494,0 0,2.41391 -14.14585,0 0,-2.19447 -41.71169,0 0,2.19447 -10.33087,0 0,-2.19447 -45.93181,0 0,2.19447 -5.99258,0 c -0.69135,-6.00954 -5.15305,-10.65159 -10.55031,-10.65159 z"
       id="rect2985-13"
       inkscape:connector-curvature="0" />
    <path
       style="fill:#ffff00;fill-opacity:0.07762559;stroke:#f28136;stroke-width:1.15243256;stroke-miterlimit:4;stroke-opacity:0.95433792;stroke-dasharray:none"
       d="m 336.14798,275.4808 c -5.40024,0 -9.86351,4.63792 -10.55031,10.65159 l -13.16678,0 0,-2.19447 -19.51385,0 0,2.19447 -10.49967,0 0,-2.19447 -19.51384,0 0,2.19447 -8.64281,0 0,-2.19447 -19.51385,0 0,2.19447 -4.82782,0 0,-2.19447 -21.48886,0 0,2.19447 -2.26199,0 0,3.27481 2.26199,0 0,2.17758 21.48886,0 0,-2.17758 4.82782,0 0,2.17758 19.51385,0 0,-2.17758 8.64281,0 0,2.17758 19.51384,0 0,-2.17758 10.49967,0 0,2.17758 19.51385,0 0,-2.17758 13.18366,0 c 0.69988,5.99923 5.14353,10.63471 10.53343,10.63471 5.39726,0 9.85896,-4.64205 10.55031,-10.65159 l 5.99258,0 0,2.19446 45.93181,0 0,-2.19446 10.33087,0 0,2.19446 41.71169,0 0,-2.19446 14.14585,0 0,1.95814 45.91494,0 0,-1.95814 10.33086,0 0,1.95814 41.71169,0 0,-1.95814 43.61919,0 0,-3.25793 -43.61919,0 0,-2.41391 -41.71169,0 0,2.41391 -10.33086,0 0,-2.41391 -45.91494,0 0,2.41391 -14.14585,0 0,-2.19447 -41.71169,0 0,2.19447 -10.33087,0 0,-2.19447 -45.93181,0 0,2.19447 -5.99258,0 c -0.69135,-6.00954 -5.15305,-10.65159 -10.55031,-10.65159 z"
       id="rect2985-4"
       inkscape:connector-curvature="0" />
    <path
       style="fill:#ffff00;fill-opacity:0.07762559;stroke:#f28136;stroke-width:1.15243256;stroke-miterlimit:4;stroke-opacity:0.95433792;stroke-dasharray:none"
       d="m 336.14798,298.6303 c -5.40024,0 -9.86351,4.63792 -10.55031,10.65159 l -13.16678,0 0,-2.19447 -19.51385,0 0,2.19447 -10.49967,0 0,-2.19447 -19.51384,0 0,2.19447 -8.64281,0 0,-2.19447 -19.51385,0 0,2.19447 -4.82782,0 0,-2.19447 -21.48886,0 0,2.19447 -2.26199,0 0,3.27481 2.26199,0 0,2.17758 21.48886,0 0,-2.17758 4.82782,0 0,2.17758 19.51385,0 0,-2.17758 8.64281,0 0,2.17758 19.51384,0 0,-2.17758 10.49967,0 0,2.17758 19.51385,0 0,-2.17758 13.18366,0 c 0.69988,5.99923 5.14353,10.63471 10.53343,10.63471 5.39726,0 9.85896,-4.64205 10.55031,-10.65159 l 5.99258,0 0,2.19446 45.93181,0 0,-2.19446 10.33087,0 0,2.19446 41.71169,0 0,-2.19446 14.14585,0 0,1.95814 45.91494,0 0,-1.95814 10.33086,0 0,1.95814 41.71169,0 0,-1.95814 43.61919,0 0,-3.25793 -43.61919,0 0,-2.41391 -41.71169,0 0,2.41391 -10.33086,0 0,-2.41391 -45.91494,0 0,2.41391 -14.14585,0 0,-2.19447 -41.71169,0 0,2.19447 -10.33087,0 0,-2.19447 -45.93181,0 0,2.19447 -5.99258,0 c -0.69135,-6.00954 -5.15305,-10.65159 -10.55031,-10.65159 z"
       id="rect2985-23"
       inkscape:connector-curvature="0" />
    <path
       style="fill:#ffff00;fill-opacity:0.07762559;stroke:#f28136;stroke-width:1.15243256;stroke-miterlimit:4;stroke-opacity:0.95433792;stroke-dasharray:none"
       d="m 336.14798,414.37782 c -5.40024,0 -9.86351,4.63792 -10.55031,10.65159 l -13.16678,0 0,-2.19447 -19.51386,0 0,2.19447 -10.49967,0 0,-2.19447 -19.51384,0 0,2.19447 -8.64281,0 0,-2.19447 -19.51385,0 0,2.19447 -4.82782,0 0,-2.19447 -21.48886,0 0,2.19447 -2.26199,0 0,3.27481 2.26199,0 0,2.17758 21.48886,0 0,-2.17758 4.82782,0 0,2.17758 19.51385,0 0,-2.17758 8.64281,0 0,2.17758 19.51384,0 0,-2.17758 10.49967,0 0,2.17758 19.51386,0 0,-2.17758 13.18366,0 c 0.69988,5.99923 5.14353,10.63471 10.53343,10.63471 5.39726,0 9.85896,-4.64205 10.55031,-10.65159 l 5.99258,0 0,2.19446 45.93181,0 0,-2.19446 10.33087,0 0,2.19446 41.71169,0 0,-2.19446 14.14585,0 0,1.95814 45.91494,0 0,-1.95814 10.33086,0 0,1.95814 41.71169,0 0,-1.95814 43.61919,0 0,-3.25793 -43.61919,0 0,-2.41391 -41.71169,0 0,2.41391 -10.33086,0 0,-2.41391 -45.91494,0 0,2.41391 -14.14585,0 0,-2.19447 -41.71169,0 0,2.19447 -10.33087,0 0,-2.19447 -45.93181,0 0,2.19447 -5.99258,0 c -0.69135,-6.00954 -5.15305,-10.65159 -10.55031,-10.65159 z"
       id="rect2985-26-0"
       inkscape:connector-curvature="0" />
    <path
       style="fill:#ffff00;fill-opacity:0.07762559;stroke:#f28136;stroke-width:1.15243256;stroke-miterlimit:4;stroke-opacity:0.95433792;stroke-dasharray:none"
       d="m 336.14798,437.52733 c -5.40024,0 -9.86351,4.63792 -10.55031,10.65159 l -13.16678,0 0,-2.19447 -19.51386,0 0,2.19447 -10.49967,0 0,-2.19447 -19.51384,0 0,2.19447 -8.64281,0 0,-2.19447 -19.51385,0 0,2.19447 -4.82782,0 0,-2.19447 -21.48886,0 0,2.19447 -2.26199,0 0,3.27481 2.26199,0 0,2.17758 21.48886,0 0,-2.17758 4.82782,0 0,2.17758 19.51385,0 0,-2.17758 8.64281,0 0,2.17758 19.51384,0 0,-2.17758 10.49967,0 0,2.17758 19.51386,0 0,-2.17758 13.18366,0 c 0.69988,5.99923 5.14353,10.63471 10.53343,10.63471 5.39726,0 9.85896,-4.64205 10.55031,-10.65159 l 5.99258,0 0,2.19446 45.93181,0 0,-2.19446 10.33087,0 0,2.19446 41.71169,0 0,-2.19446 14.14585,0 0,1.95814 45.91494,0 0,-1.95814 10.33086,0 0,1.95814 41.71169,0 0,-1.95814 43.61919,0 0,-3.25793 -43.61919,0 0,-2.41391 -41.71169,0 0,2.41391 -10.33086,0 0,-2.41391 -45.91494,0 0,2.41391 -14.14585,0 0,-2.19447 -41.71169,0 0,2.19447 -10.33087,0 0,-2.19447 -45.93181,0 0,2.19447 -5.99258,0 c -0.69135,-6.00954 -5.15305,-10.65159 -10.55031,-10.65159 z"
       id="rect2985-8-5"
       inkscape:connector-curvature="0" />
    <path
       style="fill:#ffff00;fill-opacity:0.07762559;stroke:#f28136;stroke-width:1.15243256;stroke-miterlimit:4;stroke-opacity:0.95433792;stroke-dasharray:none"
       d="m 336.14798,506.97583 c -5.40024,0 -9.86351,4.63792 -10.55031,10.65159 l -13.16678,0 0,-2.19447 -19.51386,0 0,2.19447 -10.49967,0 0,-2.19447 -19.51384,0 0,2.19447 -8.64281,0 0,-2.19447 -19.51385,0 0,2.19447 -4.82782,0 0,-2.19447 -21.48886,0 0,2.19447 -2.26199,0 0,3.27481 2.26199,0 0,2.17758 21.48886,0 0,-2.17758 4.82782,0 0,2.17758 19.51385,0 0,-2.17758 8.64281,0 0,2.17758 19.51384,0 0,-2.17758 10.49967,0 0,2.17758 19.51386,0 0,-2.17758 13.18366,0 c 0.69988,5.99923 5.14353,10.63471 10.53343,10.63471 5.39726,0 9.85896,-4.64205 10.55031,-10.65159 l 5.99258,0 0,2.19446 45.93181,0 0,-2.19446 10.33087,0 0,2.19446 41.71169,0 0,-2.19446 14.14585,0 0,1.95814 45.91494,0 0,-1.95814 10.33086,0 0,1.95814 41.71169,0 0,-1.95814 43.61919,0 0,-3.25793 -43.61919,0 0,-2.41391 -41.71169,0 0,2.41391 -10.33086,0 0,-2.41391 -45.91494,0 0,2.41391 -14.14585,0 0,-2.19447 -41.71169,0 0,2.19447 -10.33087,0 0,-2.19447 -45.93181,0 0,2.19447 -5.99258,0 c -0.69135,-6.00954 -5.15305,-10.65159 -10.55031,-10.65159 z"
       id="rect2985-4-9"
       inkscape:connector-curvature="0" />
    <path
       style="fill:#ffff00;fill-opacity:0.07762559;stroke:#f28136;stroke-width:1.15243256;stroke-miterlimit:4;stroke-opacity:0.95433792;stroke-dasharray:none"
       d="m 336.14798,530.12532 c -5.40024,0 -9.86351,4.63792 -10.55031,10.65159 l -13.16678,0 0,-2.19447 -19.51386,0 0,2.19447 -10.49967,0 0,-2.19447 -19.51384,0 0,2.19447 -8.64281,0 0,-2.19447 -19.51385,0 0,2.19447 -4.82782,0 0,-2.19447 -21.48886,0 0,2.19447 -2.26199,0 0,3.27481 2.26199,0 0,2.17758 21.48886,0 0,-2.17758 4.82782,0 0,2.17758 19.51385,0 0,-2.17758 8.64281,0 0,2.17758 19.51384,0 0,-2.17758 10.49967,0 0,2.17758 19.51386,0 0,-2.17758 13.18366,0 c 0.69988,5.99923 5.14353,10.63471 10.53343,10.63471 5.39726,0 9.85896,-4.64205 10.55031,-10.65159 l 5.99258,0 0,2.19446 45.93181,0 0,-2.19446 10.33087,0 0,2.19446 41.71169,0 0,-2.19446 14.14585,0 0,1.95814 45.91494,0 0,-1.95814 10.33086,0 0,1.95814 41.71169,0 0,-1.95814 43.61919,0 0,-3.25793 -43.61919,0 0,-2.41391 -41.71169,0 0,2.41391 -10.33086,0 0,-2.41391 -45.91494,0 0,2.41391 -14.14585,0 0,-2.19447 -41.71169,0 0,2.19447 -10.33087,0 0,-2.19447 -45.93181,0 0,2.19447 -5.99258,0 c -0.69135,-6.00954 -5.15305,-10.65159 -10.55031,-10.65159 z"
       id="rect2985-23-8"
       inkscape:connector-curvature="0" />
    <path
       style="fill:#ffff00;fill-opacity:0.07762559;stroke:#f28136;stroke-width:1.15243256;stroke-miterlimit:4;stroke-opacity:0.95433792;stroke-dasharray:none"
       d="m 336.14798,553.27483 c -5.40024,0 -9.86351,4.63792 -10.55031,10.65159 l -13.16678,0 0,-2.19447 -19.51386,0 0,2.19447 -10.49967,0 0,-2.19447 -19.51384,0 0,2.19447 -8.64281,0 0,-2.19447 -19.51385,0 0,2.19447 -4.82782,0 0,-2.19447 -21.48886,0 0,2.19447 -2.26199,0 0,3.27481 2.26199,0 0,2.17758 21.48886,0 0,-2.17758 4.82782,0 0,2.17758 19.51385,0 0,-2.17758 8.64281,0 0,2.17758 19.51384,0 0,-2.17758 10.49967,0 0,2.17758 19.51386,0 0,-2.17758 13.18366,0 c 0.69988,5.99923 5.14353,10.63471 10.53343,10.63471 5.39726,0 9.85896,-4.64205 10.55031,-10.65159 l 5.99258,0 0,2.19446 45.93181,0 0,-2.19446 10.33087,0 0,2.19446 41.71169,0 0,-2.19446 14.14585,0 0,1.95814 45.91494,0 0,-1.95814 10.33086,0 0,1.95814 41.71169,0 0,-1.95814 43.61919,0 0,-3.25793 -43.61919,0 0,-2.41391 -41.71169,0 0,2.41391 -10.33086,0 0,-2.41391 -45.91494,0 0,2.41391 -14.14585,0 0,-2.19447 -41.71169,0 0,2.19447 -10.33087,0 0,-2.19447 -45.93181,0 0,2.19447 -5.99258,0 c -0.69135,-6.00954 -5.15305,-10.65159 -10.55031,-10.65159 z"
       id="rect2985-7-6"
       inkscape:connector-curvature="0" />
    <path
       style="fill:#ffff00;fill-opacity:0.07762559;stroke:#f28136;stroke-width:1.15243256;stroke-miterlimit:4;stroke-opacity:0.95433792;stroke-dasharray:none"
       d="m 336.14798,576.42433 c -5.40024,0 -9.86351,4.63792 -10.55031,10.65159 l -13.16678,0 0,-2.19447 -19.51386,0 0,2.19447 -10.49967,0 0,-2.19447 -19.51384,0 0,2.19447 -8.64281,0 0,-2.19447 -19.51385,0 0,2.19447 -4.82782,0 0,-2.19447 -21.48886,0 0,2.19447 -2.26199,0 0,3.27481 2.26199,0 0,2.17758 21.48886,0 0,-2.17758 4.82782,0 0,2.17758 19.51385,0 0,-2.17758 8.64281,0 0,2.17758 19.51384,0 0,-2.17758 10.49967,0 0,2.17758 19.51386,0 0,-2.17758 13.18366,0 c 0.69988,5.99923 5.14353,10.63471 10.53343,10.63471 5.39726,0 9.85896,-4.64205 10.55031,-10.65159 l 5.99258,0 0,2.19446 45.93181,0 0,-2.19446 10.33087,0 0,2.19446 41.71169,0 0,-2.19446 14.14585,0 0,1.95814 45.91494,0 0,-1.95814 10.33086,0 0,1.95814 41.71169,0 0,-1.95814 43.61919,0 0,-3.25793 -43.61919,0 0,-2.41391 -41.71169,0 0,2.41391 -10.33086,0 0,-2.41391 -45.91494,0 0,2.41391 -14.14585,0 0,-2.19447 -41.71169,0 0,2.19447 -10.33087,0 0,-2.19447 -45.93181,0 0,2.19447 -5.99258,0 c -0.69135,-6.00954 -5.15305,-10.65159 -10.55031,-10.65159 z"
       id="rect2985-4-9-6"
       inkscape:connector-curvature="0" />
    <path
       style="fill:#ffff00;fill-opacity:0.07762559;stroke:#f28136;stroke-width:1.15243256;stroke-miterlimit:4;stroke-opacity:0.95433792;stroke-dasharray:none"
       d="m 336.14798,599.57383 c -5.40024,0 -9.86351,4.63792 -10.55031,10.65159 l -13.16678,0 0,-2.19447 -19.51386,0 0,2.19447 -10.49967,0 0,-2.19447 -19.51384,0 0,2.19447 -8.64281,0 0,-2.19447 -19.51385,0 0,2.19447 -4.82782,0 0,-2.19447 -21.48886,0 0,2.19447 -2.26199,0 0,3.27481 2.26199,0 0,2.17758 21.48886,0 0,-2.17758 4.82782,0 0,2.17758 19.51385,0 0,-2.17758 8.64281,0 0,2.17758 19.51384,0 0,-2.17758 10.49967,0 0,2.17758 19.51386,0 0,-2.17758 13.18366,0 c 0.69988,5.99923 5.14353,10.63471 10.53343,10.63471 5.39726,0 9.85896,-4.64205 10.55031,-10.65159 l 5.99258,0 0,2.19446 45.93181,0 0,-2.19446 10.33087,0 0,2.19446 41.71169,0 0,-2.19446 14.14585,0 0,1.95814 45.91494,0 0,-1.95814 10.33086,0 0,1.95814 41.71169,0 0,-1.95814 43.61919,0 0,-3.25793 -43.61919,0 0,-2.41391 -41.71169,0 0,2.41391 -10.33086,0 0,-2.41391 -45.91494,0 0,2.41391 -14.14585,0 0,-2.19447 -41.71169,0 0,2.19447 -10.33087,0 0,-2.19447 -45.93181,0 0,2.19447 -5.99258,0 c -0.69135,-6.00954 -5.15305,-10.65159 -10.55031,-10.65159 z"
       id="rect2985-23-8-5"
       inkscape:connector-curvature="0" />
    <path
       style="fill:#ffff00;fill-opacity:0.07762559;stroke:#f28136;stroke-width:1.15243256;stroke-miterlimit:4;stroke-opacity:0.95433792;stroke-dasharray:none"
       d="m 336.14798,622.72333 c -5.40024,0 -9.86351,4.63792 -10.55031,10.65159 l -13.16678,0 0,-2.19447 -19.51386,0 0,2.19447 -10.49967,0 0,-2.19447 -19.51384,0 0,2.19447 -8.64281,0 0,-2.19447 -19.51385,0 0,2.19447 -4.82782,0 0,-2.19447 -21.48886,0 0,2.19447 -2.26199,0 0,3.27481 2.26199,0 0,2.17758 21.48886,0 0,-2.17758 4.82782,0 0,2.17758 19.51385,0 0,-2.17758 8.64281,0 0,2.17758 19.51384,0 0,-2.17758 10.49967,0 0,2.17758 19.51386,0 0,-2.17758 13.18366,0 c 0.69988,5.99923 5.14353,10.63471 10.53343,10.63471 5.39726,0 9.85896,-4.64205 10.55031,-10.65159 l 5.99258,0 0,2.19446 45.93181,0 0,-2.19446 10.33087,0 0,2.19446 41.71169,0 0,-2.19446 14.14585,0 0,1.95814 45.91494,0 0,-1.95814 10.33086,0 0,1.95814 41.71169,0 0,-1.95814 43.61919,0 0,-3.25793 -43.61919,0 0,-2.41391 -41.71169,0 0,2.41391 -10.33086,0 0,-2.41391 -45.91494,0 0,2.41391 -14.14585,0 0,-2.19447 -41.71169,0 0,2.19447 -10.33087,0 0,-2.19447 -45.93181,0 0,2.19447 -5.99258,0 c -0.69135,-6.00954 -5.15305,-10.65159 -10.55031,-10.65159 z"
       id="rect2985-7-6-9"
       inkscape:connector-curvature="0" />
    <path
       style="fill:#ffff00;fill-opacity:0.07762559;stroke:#f28136;stroke-width:1.15243256;stroke-miterlimit:4;stroke-opacity:0.95433792;stroke-dasharray:none"
       d="m 336.14798,460.67683 c -5.40024,0 -9.86351,4.63793 -10.55031,10.65159 l -13.18366,0 0,-2.17758 -19.49698,0 0,2.17758 -17.06617,0 0,-2.17758 -19.49697,0 0,2.17758 -17.57259,0 0,3.27482 17.57259,0 0,2.17758 19.49697,0 0,-2.17758 17.06617,0 0,2.17758 19.49698,0 0,-2.17758 13.20054,0 c 0.69766,6.00207 5.14177,10.63471 10.53343,10.63471 5.39725,0 9.85896,-4.64206 10.55032,-10.65159 l 5.99257,0 0,2.19446 45.93182,0 0,-2.19446 10.33086,0 0,2.19446 41.71169,0 0,-2.19446 14.14585,0 0,1.95813 45.91494,0 0,-1.95813 10.33086,0 0,1.95813 41.71169,0 0,-1.95813 43.61919,0 0,-3.25794 -43.61919,0 0,-2.41391 -41.71169,0 0,2.41391 -10.33086,0 0,-2.41391 -45.91494,0 0,2.41391 -14.14585,0 0,-2.19446 -41.71169,0 0,2.19446 -10.33086,0 0,-2.19446 -45.93182,0 0,2.19446 -5.99257,0 c -0.69136,-6.00954 -5.15307,-10.65159 -10.55032,-10.65159 z"
       id="rect2985-1-5"
       inkscape:connector-curvature="0" />
    <path
       style="fill:#ffff00;fill-opacity:0.07762559;stroke:#f28136;stroke-width:1.15243256;stroke-miterlimit:4;stroke-opacity:0.95433792;stroke-dasharray:none"
       d="m 336.14798,483.82633 c -5.40024,0 -9.86351,4.63793 -10.55031,10.65159 l -13.18366,0 0,-2.17758 -19.49699,0 0,2.17758 -17.06617,0 0,-2.17758 -19.49697,0 0,2.17758 -17.57259,0 0,3.27482 17.57259,0 0,2.17758 19.49697,0 0,-2.17758 17.06617,0 0,2.17758 19.49699,0 0,-2.17758 13.20054,0 c 0.69766,6.00207 5.14177,10.63471 10.53343,10.63471 5.39726,0 9.85896,-4.64206 10.55032,-10.65159 l 5.99257,0 0,2.19446 45.93182,0 0,-2.19446 10.33086,0 0,2.19446 41.71169,0 0,-2.19446 14.14585,0 0,1.95813 45.91494,0 0,-1.95813 10.33086,0 0,1.95813 41.71169,0 0,-1.95813 43.61919,0 0,-3.25794 -43.61919,0 0,-2.41391 -41.71169,0 0,2.41391 -10.33086,0 0,-2.41391 -45.91494,0 0,2.41391 -14.14585,0 0,-2.19446 -41.71169,0 0,2.19446 -10.33086,0 0,-2.19446 -45.93182,0 0,2.19446 -5.99257,0 c -0.69136,-6.00954 -5.15306,-10.65159 -10.55032,-10.65159 z"
       id="rect2985-1-6-3"
       inkscape:connector-curvature="0" />
    <path
       style="fill:#ffff00;fill-opacity:0.07762559;stroke:#f28136;stroke-width:1.15243256;stroke-miterlimit:4;stroke-opacity:0.95433792;stroke-dasharray:none"
       d="m 336.14799,182.88278 c -5.40024,0 -9.86351,4.63793 -10.55031,10.65159 l -13.18367,0 0,-2.17758 -19.49698,0 0,2.17758 -17.06617,0 0,-2.17758 -19.49697,0 0,2.17758 -17.57259,0 0,3.27482 17.57259,0 0,2.17758 19.49697,0 0,-2.17758 17.06617,0 0,2.17758 19.49698,0 0,-2.17758 13.20055,0 c 0.69766,6.00207 5.14177,10.63471 10.53343,10.63471 5.39725,0 9.85895,-4.64206 10.55031,-10.65159 l 5.99257,0 0,2.19446 45.93182,0 0,-2.19446 10.33086,0 0,2.19446 41.71169,0 0,-2.19446 14.14585,0 0,1.95813 45.91494,0 0,-1.95813 10.33086,0 0,1.95813 41.71169,0 0,-1.95813 43.61919,0 0,-3.25794 -43.61919,0 0,-2.41391 -41.71169,0 0,2.41391 -10.33086,0 0,-2.41391 -45.91494,0 0,2.41391 -14.14585,0 0,-2.19446 -41.71169,0 0,2.19446 -10.33086,0 0,-2.19446 -45.93182,0 0,2.19446 -5.99257,0 c -0.69136,-6.00954 -5.15306,-10.65159 -10.55031,-10.65159 z"
       id="rect2985-1-3"
       inkscape:connector-curvature="0" />
    <path
       style="fill:#ffff00;fill-opacity:0.07762559;stroke:#f28136;stroke-width:1.15243256;stroke-miterlimit:4;stroke-opacity:0.95433792;stroke-dasharray:none"
       d="m 336.14799,206.03226 c -5.40024,0 -9.86351,4.63793 -10.55031,10.65159 l -13.18367,0 0,-2.17758 -19.49699,0 0,2.17758 -17.06617,0 0,-2.17758 -19.49697,0 0,2.17758 -17.57259,0 0,3.27482 17.57259,0 0,2.17758 19.49697,0 0,-2.17758 17.06617,0 0,2.17758 19.49699,0 0,-2.17758 13.20055,0 c 0.69766,6.00207 5.14177,10.63471 10.53343,10.63471 5.39725,0 9.85895,-4.64206 10.55031,-10.65159 l 5.99257,0 0,2.19446 45.93182,0 0,-2.19446 10.33086,0 0,2.19446 41.71169,0 0,-2.19446 14.14585,0 0,1.95813 45.91494,0 0,-1.95813 10.33086,0 0,1.95813 41.71169,0 0,-1.95813 43.61919,0 0,-3.25794 -43.61919,0 0,-2.41391 -41.71169,0 0,2.41391 -10.33086,0 0,-2.41391 -45.91494,0 0,2.41391 -14.14585,0 0,-2.19446 -41.71169,0 0,2.19446 -10.33086,0 0,-2.19446 -45.93182,0 0,2.19446 -5.99257,0 c -0.69136,-6.00954 -5.15306,-10.65159 -10.55031,-10.65159 z"
       id="rect2985-1-6-7"
       inkscape:connector-curvature="0" />
    <path
       style="fill:#ffff00;fill-opacity:0.07762559;stroke:#f28136;stroke-width:1.15243256;stroke-miterlimit:4;stroke-opacity:0.95433792;stroke-dasharray:none"
       d="m 336.14798,344.92931 c -5.40229,0 -9.86612,4.63459 -10.55031,10.65159 l -18.82175,0 0,3.25794 18.82175,0 c 0.69301,6.00802 5.15497,10.65159 10.55031,10.65159 5.39725,0 9.85895,-4.64206 10.5503,-10.65159 l 5.99258,0 0,2.19446 45.93182,0 0,-2.19446 10.33086,0 0,2.19446 41.7117,0 0,-2.19446 14.14585,0 0,1.95813 45.91493,0 0,-1.95813 10.33086,0 0,1.95813 41.7117,0 0,-1.95813 43.61919,0 0,-3.25794 -43.61919,0 0,-2.41391 -41.7117,0 0,2.41391 -10.33086,0 0,-2.41391 -45.91493,0 0,2.41391 -14.14585,0 0,-2.19446 -41.7117,0 0,2.19446 -10.33086,0 0,-2.19446 -45.93182,0 0,2.19446 -5.99258,0 c -0.69135,-6.00954 -5.15305,-10.65159 -10.5503,-10.65159 z"
       id="rect2985-2"
       inkscape:connector-curvature="0" />
    <path
       style="fill:#ffff00;fill-opacity:0.07762559;stroke:#f28136;stroke-width:1.15243256;stroke-miterlimit:4;stroke-opacity:0.95433792;stroke-dasharray:none"
       d="m 336.14798,321.77979 c -5.40229,0 -9.86612,4.63459 -10.55031,10.65159 l -18.82175,0 0,3.25794 18.82175,0 c 0.69301,6.00802 5.15497,10.65159 10.55031,10.65159 5.39725,0 9.85895,-4.64206 10.5503,-10.65159 l 5.99258,0 0,2.19446 45.93182,0 0,-2.19446 10.33086,0 0,2.19446 41.7117,0 0,-2.19446 14.14585,0 0,1.95813 45.91493,0 0,-1.95813 10.33086,0 0,1.95813 41.7117,0 0,-1.95813 43.61919,0 0,-3.25794 -43.61919,0 0,-2.41391 -41.7117,0 0,2.41391 -10.33086,0 0,-2.41391 -45.91493,0 0,2.41391 -14.14585,0 0,-2.19446 -41.7117,0 0,2.19446 -10.33086,0 0,-2.19446 -45.93182,0 0,2.19446 -5.99258,0 c -0.69135,-6.00954 -5.15305,-10.65159 -10.5503,-10.65159 z"
       id="rect2985-2-0"
       inkscape:connector-curvature="0" />
    <path
       style="fill:#ffff00;fill-opacity:0.07762559;stroke:#f28136;stroke-width:1.15243256;stroke-miterlimit:4;stroke-opacity:0.95433792;stroke-dasharray:none"
       d="m 336.14798,391.2283 c -5.40229,0 -9.86612,4.63459 -10.55031,10.65159 l -18.82175,0 0,3.25794 18.82175,0 c 0.69301,6.00802 5.15497,10.65159 10.55031,10.65159 5.39725,0 9.85895,-4.64206 10.5503,-10.65159 l 5.99258,0 0,2.19446 45.93182,0 0,-2.19446 10.33086,0 0,2.19446 41.7117,0 0,-2.19446 14.14585,0 0,1.95813 45.91493,0 0,-1.95813 10.33086,0 0,1.95813 41.7117,0 0,-1.95813 43.61919,0 0,-3.25794 -43.61919,0 0,-2.41391 -41.7117,0 0,2.41391 -10.33086,0 0,-2.41391 -45.91493,0 0,2.41391 -14.14585,0 0,-2.19446 -41.7117,0 0,2.19446 -10.33086,0 0,-2.19446 -45.93182,0 0,2.19446 -5.99258,0 c -0.69135,-6.00954 -5.15305,-10.65159 -10.5503,-10.65159 z"
       id="rect2985-2-5"
       inkscape:connector-curvature="0" />
    <path
       style="fill:#ffff00;fill-opacity:0.07762559;stroke:#f28136;stroke-width:1.15243256;stroke-miterlimit:4;stroke-opacity:0.95433792;stroke-dasharray:none"
       d="m 336.14798,368.07882 c -5.40229,0 -9.86612,4.63459 -10.55031,10.65159 l -18.82175,0 0,3.25794 18.82175,0 c 0.69301,6.00802 5.15497,10.65159 10.55031,10.65159 5.39725,0 9.85895,-4.64206 10.5503,-10.65159 l 5.99258,0 0,2.19446 45.93182,0 0,-2.19446 10.33086,0 0,2.19446 41.7117,0 0,-2.19446 14.14585,0 0,1.95813 45.91493,0 0,-1.95813 10.33086,0 0,1.95813 41.7117,0 0,-1.95813 43.61919,0 0,-3.25794 -43.61919,0 0,-2.41391 -41.7117,0 0,2.41391 -10.33086,0 0,-2.41391 -45.91493,0 0,2.41391 -14.14585,0 0,-2.19446 -41.7117,0 0,2.19446 -10.33086,0 0,-2.19446 -45.93182,0 0,2.19446 -5.99258,0 c -0.69135,-6.00954 -5.15305,-10.65159 -10.5503,-10.65159 z"
       id="rect2985-2-0-8"
       inkscape:connector-curvature="0" />
    <ellipse
       style="fill:#cce7f1;fill-opacity:1;stroke:#020101;stroke-width:0.58001816;stroke-miterlimit:4;stroke-dasharray:none;stroke-opacity:0.95433792"
       id="path4208"
       cx="51.483662"
       cy="377.34879"
       rx="23.262007"
       ry="31.2243" />
    <path
       style="fill:none;fill-rule:evenodd;stroke:#000000;stroke-width:0.54861104px;stroke-linecap:butt;stroke-linejoin:miter;stroke-opacity:1"
       d="m 47.039368,381.15043 0,-17.63392 6.661705,0 0,17.65116"
       id="path3374"
       inkscape:connector-curvature="0"
       sodipodi:nodetypes="cccc" />
    <path
       style="fill:url(#linearGradient5666);fill-opacity:1;fill-rule:evenodd;stroke:none;stroke-width:1.22813344px;stroke-linecap:butt;stroke-linejoin:miter;stroke-opacity:1"
       d="M 75.531053,377.31782 C 202.93791,285.66208 190.48561,219.74753 247.9629,140.96237 l 0,499.84535 C 201.61376,551.07496 202.36583,453.28841 75.531053,377.31782 Z"
       id="path3388"
       inkscape:connector-curvature="0"
       sodipodi:nodetypes="cccc" />
    <circle
       style="fill:#ff0000;fill-opacity:1;stroke:none"
       id="path5693"
       cx="351.55078"
       cy="217.31363"
       r="4.2857141" />
    <circle
       style="fill:#ff0000;fill-opacity:1;stroke:none"
       id="path5693-3"
       cx="289.55078"
       cy="242.31364"
       r="4.2857141" />
    <circle
       style="fill:#ff0000;fill-opacity:1;stroke:none"
       id="path5693-6"
       cx="351.12219"
       cy="309.59933"
       r="4.2857141" />
    <circle
       style="fill:#ff0000;fill-opacity:1;stroke:none"
       id="path5693-7"
       cx="313.40793"
       cy="287.88504"
       r="4.2857141" />
    <circle
       style="fill:#ff0000;fill-opacity:1;stroke:none"
       id="path5693-9"
       cx="351.12219"
       cy="355.59933"
       r="4.2857141" />
    <circle
       style="fill:#ff0000;fill-opacity:1;stroke:none"
       id="path5693-2"
       cx="351.12219"
       cy="381.59933"
       r="4.2857141" />
    <circle
       style="fill:#ff0000;fill-opacity:1;stroke:none"
       id="path5693-70"
       cx="349.12219"
       cy="403.59933"
       r="4.2857141" />
    <circle
       style="fill:#ff0000;fill-opacity:1;stroke:none"
       id="path5693-93"
       cx="316.97937"
       cy="427.59933"
       r="4.2857141" />
    <circle
       style="fill:#ff0000;fill-opacity:1;stroke:none"
       id="path5693-60"
       cx="317.69363"
       cy="449.45648"
       r="4.2857141" />
    <circle
       style="fill:#ff0000;fill-opacity:1;stroke:none"
       id="path5693-626"
       cx="347.97934"
       cy="472.88504"
       r="4.2857141" />
    <circle
       style="fill:#ff0000;fill-opacity:1;stroke:none"
       id="path5693-79"
       cx="314.97937"
       cy="264.45648"
       r="4.2857141" />
  </g>
</svg>
