<?xml version="1.0" encoding="UTF-8" standalone="no"?>
<!-- Created with Inkscape (http://www.inkscape.org/) -->

<svg
   xmlns:dc="http://purl.org/dc/elements/1.1/"
   xmlns:cc="http://creativecommons.org/ns#"
   xmlns:rdf="http://www.w3.org/1999/02/22-rdf-syntax-ns#"
   xmlns:svg="http://www.w3.org/2000/svg"
   xmlns="http://www.w3.org/2000/svg"
   xmlns:sodipodi="http://sodipodi.sourceforge.net/DTD/sodipodi-0.dtd"
   xmlns:inkscape="http://www.inkscape.org/namespaces/inkscape"
   id="svg2"
   version="1.1"
   inkscape:version="0.91 r13725"
   width="303.41751"
   height="436.80676"
   xml:space="preserve"
   sodipodi:docname="pulse-shapes.svg"><metadata
     id="metadata8"><rdf:RDF><cc:Work
         rdf:about=""><dc:format>image/svg+xml</dc:format><dc:type
           rdf:resource="http://purl.org/dc/dcmitype/StillImage" /><dc:title /></cc:Work></rdf:RDF></metadata><defs
     id="defs6" /><sodipodi:namedview
     pagecolor="#ffffff"
     bordercolor="#666666"
     borderopacity="1"
     objecttolerance="10"
     gridtolerance="10"
     guidetolerance="10"
     inkscape:pageopacity="1"
     inkscape:pageshadow="2"
     inkscape:window-width="1920"
     inkscape:window-height="1016"
     id="namedview4"
     showgrid="false"
     inkscape:zoom="1.4142136"
     inkscape:cx="271.80854"
     inkscape:cy="184.70983"
     inkscape:window-x="1080"
     inkscape:window-y="867"
     inkscape:window-maximized="1"
     inkscape:current-layer="g4205"
     fit-margin-top="0"
     fit-margin-left="0"
     fit-margin-right="0"
     fit-margin-bottom="0" /><g
     id="g10"
     inkscape:groupmode="layer"
     inkscape:label="pulse-shapes"
     transform="matrix(1.25,0,0,-1.25,1.4476776e-8,436.80779)"><g
       id="g12"><g
         id="g4195"
         style="stroke-width:1.6;stroke-miterlimit:4;stroke-dasharray:none"><g
           transform="matrix(1,0,0,-1,0,350.18689)"
           id="g42"
           style="stroke-width:1.6;stroke-miterlimit:4;stroke-dasharray:none"><path
             inkscape:connector-curvature="0"
             id="path44"
             style="fill:none;stroke:#000000;stroke-width:1.6;stroke-linecap:butt;stroke-linejoin:miter;stroke-miterlimit:4;stroke-dasharray:none;stroke-opacity:1"
             d="m 53.535,125.992 0,-21.344 6.434,0 0,26.606 41.801,0 0,-5.555" /></g><g
           transform="matrix(1,0,0,-1,0,350.18689)"
           id="g46"
           style="stroke-width:1.6;stroke-miterlimit:4;stroke-dasharray:none"><path
             inkscape:connector-curvature="0"
             id="path48"
             style="fill:none;stroke:#000000;stroke-width:1.6;stroke-linecap:butt;stroke-linejoin:miter;stroke-miterlimit:4;stroke-dasharray:none;stroke-opacity:1"
             d="m 116.352,126.074 0,21.34 6.433,0 0,-26.605 41.801,0 0,5.554" /></g><g
           transform="matrix(1,0,0,-1,0,350.18689)"
           id="g50"
           style="stroke-width:1.6;stroke-miterlimit:4;stroke-dasharray:none"><path
             inkscape:connector-curvature="0"
             id="path52"
             style="fill:none;stroke:#000000;stroke-width:1.6;stroke-linecap:butt;stroke-linejoin:miter;stroke-miterlimit:4;stroke-dasharray:none;stroke-opacity:1"
             d="m 179.168,125.992 0,-21.344 6.434,0 0,26.606 41.8,0 0,-5.555" /></g><g
           transform="matrix(1,0,0,-1,0,349.44653)"
           id="g54"
           style="stroke-width:1.6;stroke-miterlimit:4;stroke-dasharray:none"><path
             inkscape:connector-curvature="0"
             id="path56"
             style="fill:none;stroke:#000000;stroke-width:0.4;stroke-linecap:butt;stroke-linejoin:miter;stroke-miterlimit:4;stroke-dasharray:none;stroke-opacity:1"
             d="m 51.926,125.52 190.152,0" /></g></g><g
         id="g4237"
         style="stroke-width:1.6;stroke-miterlimit:4;stroke-dasharray:none"><g
           transform="matrix(1,0,0,-1,0,349.81671)"
           id="g58"
           style="stroke-width:1.6;stroke-miterlimit:4;stroke-dasharray:none"><path
             inkscape:connector-curvature="0"
             id="path60"
             style="fill:none;stroke:#000000;stroke-width:1.6;stroke-linecap:butt;stroke-linejoin:miter;stroke-miterlimit:4;stroke-dasharray:none;stroke-opacity:1"
             d="m 53.535,239.055 0,-21.34 6.434,0 0,26.601 41.801,0 0,-5.554" /></g><g
           transform="matrix(1,0,0,-1,0,349.81671)"
           id="g62"
           style="stroke-width:1.6;stroke-miterlimit:4;stroke-dasharray:none"><path
             inkscape:connector-curvature="0"
             id="path64"
             style="fill:none;stroke:#000000;stroke-width:1.6;stroke-linecap:butt;stroke-linejoin:miter;stroke-miterlimit:4;stroke-dasharray:none;stroke-opacity:1"
             d="m 179.168,239.055 0,-21.34 6.434,0 0,26.601 41.8,0 0,-5.554" /></g><g
           transform="matrix(1,0,0,-1,0,349.44653)"
           id="g66"
           style="stroke-width:0.4;stroke-miterlimit:4;stroke-dasharray:none"><path
             inkscape:connector-curvature="0"
             id="path68"
             style="fill:none;stroke:#000000;stroke-width:0.4;stroke-linecap:butt;stroke-linejoin:miter;stroke-miterlimit:4;stroke-dasharray:none;stroke-opacity:1"
             d="m 51.926,238.609 190.152,0" /></g></g><g
         id="g4245"
         style="stroke-width:1.6;stroke-miterlimit:4;stroke-dasharray:none"><g
           transform="matrix(1,0,0,-1,0,349.44653)"
           id="g70"
           style="stroke-width:1.6;stroke-miterlimit:4;stroke-dasharray:none"><path
             inkscape:connector-curvature="0"
             id="path72"
             style="fill:none;stroke:#000000;stroke-width:1.6;stroke-linecap:butt;stroke-linejoin:miter;stroke-miterlimit:4;stroke-dasharray:none;stroke-opacity:1"
             d="m 53.535,275.469 0,21.34 6.434,0 0,-26.602 41.801,0 0,5.555" /></g><g
           transform="matrix(1,0,0,-1,0,349.44653)"
           id="g74"
           style="stroke-width:1.6;stroke-miterlimit:4;stroke-dasharray:none"><path
             inkscape:connector-curvature="0"
             id="path76"
             style="fill:none;stroke:#000000;stroke-width:1.6;stroke-linecap:butt;stroke-linejoin:miter;stroke-miterlimit:4;stroke-dasharray:none;stroke-opacity:1"
             d="m 116.352,275.469 0,21.34 6.433,0 0,-26.602 41.801,0 0,5.555" /></g><g
           transform="matrix(1,0,0,-1,0,349.44653)"
           id="g78"
           style="stroke-width:1.6;stroke-miterlimit:4;stroke-dasharray:none"><path
             inkscape:connector-curvature="0"
             id="path80"
             style="fill:none;stroke:#000000;stroke-width:1.6;stroke-linecap:butt;stroke-linejoin:miter;stroke-miterlimit:4;stroke-dasharray:none;stroke-opacity:1"
             d="m 179.168,275.469 0,21.34 6.434,0 0,-26.602 41.8,0 0,5.555" /></g><g
           transform="matrix(1,0,0,-1,0,349.44653)"
           id="g82"
           style="stroke-width:1.6;stroke-miterlimit:4;stroke-dasharray:none"><path
             inkscape:connector-curvature="0"
             id="path84"
             style="fill:none;stroke:#000000;stroke-width:0.4;stroke-linecap:butt;stroke-linejoin:miter;stroke-miterlimit:4;stroke-dasharray:none;stroke-opacity:1"
             d="m 51.781,275.449 190.149,0" /></g></g><g
         id="g4227"
         style="stroke-width:1.6;stroke-miterlimit:4;stroke-dasharray:none"><g
           transform="matrix(1,0,0,-1,0,349.44653)"
           id="g86"
           style="stroke-width:1.6;stroke-miterlimit:4;stroke-dasharray:none"><path
             inkscape:connector-curvature="0"
             id="path88"
             style="fill:none;stroke:#000000;stroke-width:1.6;stroke-linecap:butt;stroke-linejoin:miter;stroke-miterlimit:4;stroke-dasharray:none;stroke-opacity:1"
             d="m 53.535,186.562 0,-21.339 6.434,0 0,26.601 41.801,0 0,-5.554" /></g><g
           transform="matrix(1,0,0,-1,0,349.44653)"
           id="g90"
           style="stroke-width:1.6;stroke-miterlimit:4;stroke-dasharray:none"><path
             inkscape:connector-curvature="0"
             id="path92"
             style="fill:none;stroke:#000000;stroke-width:1.6;stroke-linecap:butt;stroke-linejoin:miter;stroke-miterlimit:4;stroke-dasharray:none;stroke-opacity:1"
             d="m 116.352,186.562 0,-21.339 6.433,0 0,26.601 41.801,0 0,-5.554" /></g><g
           transform="matrix(1,0,0,-1,0,349.44653)"
           id="g94"
           style="stroke-width:1.6;stroke-miterlimit:4;stroke-dasharray:none"><path
             inkscape:connector-curvature="0"
             id="path96"
             style="fill:none;stroke:#000000;stroke-width:1.6;stroke-linecap:butt;stroke-linejoin:miter;stroke-miterlimit:4;stroke-dasharray:none;stroke-opacity:1"
             d="m 179.168,186.562 0,-21.339 6.434,0 0,26.601 41.8,0 0,-5.554" /></g><g
           transform="matrix(1,0,0,-1,0,349.44653)"
           id="g98"
           style="stroke-width:0.4;stroke-miterlimit:4;stroke-dasharray:none"><path
             inkscape:connector-curvature="0"
             id="path100"
             style="fill:none;stroke:#000000;stroke-width:0.4;stroke-linecap:butt;stroke-linejoin:miter;stroke-miterlimit:4;stroke-dasharray:none;stroke-opacity:1"
             d="m 51.926,186.48 190.152,0" /></g></g><g
         id="g4255"
         style="stroke-width:1.6;stroke-miterlimit:4;stroke-dasharray:none"><g
           transform="matrix(1,0,0,-1,0,349.44653)"
           id="g102"
           style="stroke-width:1.6;stroke-miterlimit:4;stroke-dasharray:none"><path
             inkscape:connector-curvature="0"
             id="path104"
             style="fill:none;stroke:#000000;stroke-width:1.6;stroke-linecap:butt;stroke-linejoin:miter;stroke-miterlimit:4;stroke-dasharray:none;stroke-opacity:1"
             d="m 53.535,327.961 0,21.34 6.434,0 0,-26.602 41.801,0 0,5.555" /></g><g
           transform="matrix(1,0,0,-1,0,349.44653)"
           id="g106"
           style="stroke-width:1.6;stroke-miterlimit:4;stroke-dasharray:none"><path
             inkscape:connector-curvature="0"
             id="path108"
             style="fill:none;stroke:#000000;stroke-width:1.6;stroke-linecap:butt;stroke-linejoin:miter;stroke-miterlimit:4;stroke-dasharray:none;stroke-opacity:1"
             d="m 179.168,327.961 0,21.34 6.434,0 0,-26.602 41.8,0 0,5.555" /></g><g
           transform="matrix(1,0,0,-1,0,349.44653)"
           id="g110"
           style="stroke-width:0.4;stroke-miterlimit:4;stroke-dasharray:none"><path
             inkscape:connector-curvature="0"
             id="path112"
             style="fill:none;stroke:#000000;stroke-width:0.4;stroke-linecap:butt;stroke-linejoin:miter;stroke-miterlimit:4;stroke-dasharray:none;stroke-opacity:1"
             d="m 51.781,327.957 190.149,0" /></g></g><text
         transform="matrix(1,0,0,-1,-0.527344,328.98071)"
         id="text114"><tspan
           style="font-variant:normal;font-weight:normal;font-size:8px;font-family:'DejaVu Sans';-inkscape-font-specification:DejaVuSans;writing-mode:lr-tb;fill:#000000;fill-opacity:1;fill-rule:nonzero;stroke:none"
           x="0"
           y="0"
           sodipodi:role="line"
           id="tspan118" /><tspan
           style="font-variant:normal;font-weight:normal;font-size:8px;font-family:'DejaVu Sans';-inkscape-font-specification:DejaVuSans;writing-mode:lr-tb;fill:#000000;fill-opacity:1;fill-rule:nonzero;stroke:none"
           x="0.46484399 5.9368439 9.2888441 14.168844 18.992844 24.064844 26.600843 31.688845 36.800842"
           y="103.55314"
           sodipodi:role="line"
           id="tspan120">ALTPS 150</tspan><tspan
           style="font-variant:normal;font-weight:normal;font-size:8px;font-family:'DejaVu Sans';-inkscape-font-specification:DejaVuSans;writing-mode:lr-tb;fill:#000000;fill-opacity:1;fill-rule:nonzero;stroke:none"
           x="-0.25781199 4.5661879 9.7981882 15.270188 17.806189 22.894188 27.982187"
           y="155.3297"
           sodipodi:role="line"
           id="tspan122">PSA 150</tspan><tspan
           style="font-variant:normal;font-weight:normal;font-size:8px;font-family:'DejaVu Sans';-inkscape-font-specification:DejaVuSans;writing-mode:lr-tb;fill:#000000;fill-opacity:1;fill-rule:nonzero;stroke:none"
           x="-0.25781199 4.5661879 9.7981882 15.270188 17.806189 22.894188"
           y="207.10628"
           sodipodi:role="line"
           id="tspan124">PSA 75</tspan><tspan
           style="font-variant:normal;font-weight:normal;font-size:8px;font-family:'DejaVu Sans';-inkscape-font-specification:DejaVuSans;writing-mode:lr-tb;fill:#000000;fill-opacity:1;fill-rule:nonzero;stroke:none"
           x="-0.25781199 4.5661879 9.6381884 15.222188 17.758188 22.846188 27.958187"
           y="258.88281"
           sodipodi:role="line"
           id="tspan126">PSC 150</tspan><tspan
           style="font-variant:normal;font-weight:normal;font-size:8px;font-family:'DejaVu Sans';-inkscape-font-specification:DejaVuSans;writing-mode:lr-tb;fill:#000000;fill-opacity:1;fill-rule:nonzero;stroke:none"
           x="-0.25781199 4.5661879 9.6381884 15.222188"
           y="310.65939"
           sodipodi:role="line"
           id="tspan128">PSC 75</tspan></text>
<g
         id="g4205"
         style="stroke-width:1.6;stroke-miterlimit:4;stroke-dasharray:none"><g
           transform="matrix(1,0,0,-1,0,349.44653)"
           id="g14"
           style="stroke-width:0.4;stroke-miterlimit:4;stroke-dasharray:none"><path
             inkscape:connector-curvature="0"
             id="path16"
             style="fill:none;stroke:#000000;stroke-width:0.4;stroke-linecap:butt;stroke-linejoin:miter;stroke-miterlimit:4;stroke-dasharray:none;stroke-opacity:1"
             d="m 51.992,21.691 190.36,0" /></g><g
           transform="matrix(1,0,0,-1,0,349.44653)"
           id="g18"
           style="stroke-width:1.6;stroke-miterlimit:4;stroke-dasharray:none"><path
             inkscape:connector-curvature="0"
             id="path20"
             style="fill:none;stroke:#000000;stroke-width:1.6;stroke-linecap:butt;stroke-linejoin:miter;stroke-miterlimit:4;stroke-dasharray:none;stroke-opacity:1"
             d="m 53.535,21.484 0,-21.339 6.434,0 0,41.804 6.136,0 0,-20.758" /></g><g
           transform="matrix(1,0,0,-1,0,349.44653)"
           id="g22"
           style="stroke-width:1.6;stroke-miterlimit:4;stroke-dasharray:none"><path
             inkscape:connector-curvature="0"
             id="path24"
             style="fill:none;stroke:#000000;stroke-width:1.6;stroke-linecap:butt;stroke-linejoin:miter;stroke-miterlimit:4;stroke-dasharray:none;stroke-opacity:1"
             d="m 116.352,21.484 0,-21.339 6.433,0 0,41.804 6.137,0 0,-20.758" /></g><g
           transform="matrix(1,0,0,-1,0,349.44653)"
           id="g26"
           style="stroke-width:1.6;stroke-miterlimit:4;stroke-dasharray:none"><path
             inkscape:connector-curvature="0"
             id="path28"
             style="fill:none;stroke:#000000;stroke-width:1.6;stroke-linecap:butt;stroke-linejoin:miter;stroke-miterlimit:4;stroke-dasharray:none;stroke-opacity:1"
             d="m 179.168,21.484 0,-21.339 6.434,0 0,41.804 6.136,0 0,-20.758" /></g><text
           transform="scale(1,-1)"
           sodipodi:linespacing="125%"
           id="text3109"
           y="-328.3465"
           x="-0.52734375"
           style="font-style:normal;font-weight:normal;font-size:8px;line-height:125%;font-family:Sans;letter-spacing:0px;word-spacing:0px;fill:#000000;fill-opacity:1;stroke:none;stroke-width:1.6;stroke-miterlimit:4;stroke-dasharray:none"
           xml:space="preserve"><tspan
             y="-328.3465"
             x="-0.52734375"
             id="tspan3111"
             sodipodi:role="line">SYMA 150</tspan></text>
</g><g
         id="g4217"
         style="stroke-width:1.6;stroke-miterlimit:4;stroke-dasharray:none"><g
           transform="matrix(1,0,0,-1,0,348.58689)"
           id="g30"
           style="stroke-width:1.6;stroke-miterlimit:4;stroke-dasharray:none"><path
             inkscape:connector-curvature="0"
             id="path32"
             style="fill:none;stroke:#000000;stroke-width:1.6;stroke-linecap:butt;stroke-linejoin:miter;stroke-miterlimit:4;stroke-dasharray:none;stroke-opacity:1"
             d="m 53.535,73.977 0,-21.34 6.434,0 0,41.804 6.136,0 0,-20.757" /></g><g
           transform="matrix(1,0,0,-1,0,348.70617)"
           id="g34"
           style="stroke-width:1.6;stroke-miterlimit:4;stroke-dasharray:none"><path
             inkscape:connector-curvature="0"
             id="path36"
             style="fill:none;stroke:#000000;stroke-width:1.6;stroke-linecap:butt;stroke-linejoin:miter;stroke-miterlimit:4;stroke-dasharray:none;stroke-opacity:1"
             d="m 179.168,73.977 0,-21.34 6.434,0 0,41.804 6.136,0 0,-20.757" /></g><g
           transform="matrix(1,0,0,-1,0,349.44653)"
           id="g38"
           style="stroke-width:0.4;stroke-miterlimit:4;stroke-dasharray:none"><path
             inkscape:connector-curvature="0"
             id="path40"
             style="fill:none;stroke:#000000;stroke-width:0.4;stroke-linecap:butt;stroke-linejoin:miter;stroke-miterlimit:4;stroke-dasharray:none;stroke-opacity:1"
             d="m 51.992,74.797 190.742,0" /></g><text
           transform="scale(1,-1)"
           sodipodi:linespacing="125%"
           id="text3109-0"
           y="-273.2395"
           x="-0.52734375"
           style="font-style:normal;font-weight:normal;font-size:8px;line-height:125%;font-family:Sans;letter-spacing:0px;word-spacing:0px;fill:#000000;fill-opacity:1;stroke:none;stroke-width:1.6;stroke-miterlimit:4;stroke-dasharray:none"
           xml:space="preserve"><tspan
             y="-273.2395"
             x="-0.52734375"
             id="tspan3111-6"
             sodipodi:role="line">SYMA 75</tspan></text>
</g></g></g></svg>